<svg width="304" height="221" viewBox="0 0 304 221" fill="none" xmlns="http://www.w3.org/2000/svg">
<g clip-path="url(#clip0_9_322)">
<path d="M86.6294 139.864C86.1643 139.709 85.743 139.463 85.3953 139.146C85.0475 138.829 84.7817 138.447 84.6166 138.028C84.4516 137.609 84.3912 137.163 84.4398 136.721C84.4883 136.279 84.6447 135.851 84.8978 135.469L77.1023 127.222L83.3313 126.556L89.7791 134.489C90.4687 134.912 90.9609 135.547 91.1625 136.273C91.3641 136.999 91.261 137.766 90.8727 138.428C90.4845 139.091 89.8381 139.603 89.056 139.868C88.2739 140.132 87.4105 140.131 86.6294 139.864Z" fill="#CB8E97"/>
<path d="M54.5349 217.159L58.6763 217.159L60.6469 202.866L54.5339 202.866L54.5349 217.159Z" fill="#CB8E97"/>
<path d="M53.4783 215.949L54.6441 215.949L59.1954 214.293L61.6348 215.949H61.6351C63.0137 215.949 64.3358 216.439 65.3106 217.311C66.2854 218.183 66.833 219.366 66.8331 220.599V220.75L53.4785 220.751L53.4783 215.949Z" fill="#2F2E41"/>
<path d="M70.5848 214.824L74.6249 215.64L80.0656 202.086L74.1029 200.882L70.5848 214.824Z" fill="#CB8E97"/>
<path d="M69.852 213.435L70.9892 213.665L75.8365 212.947L77.8083 215.043L77.8086 215.043C79.1533 215.314 80.3223 216.053 81.0584 217.096C81.7945 218.138 82.0375 219.4 81.7339 220.603L81.6967 220.751L68.67 218.119L69.852 213.435Z" fill="#2F2E41"/>
<path d="M46.9525 143.64L50.6977 181.182C50.6977 181.182 49.2944 203.72 53.8226 211.651H60.3898L63.6413 179.123L64.0496 157.291L78.1288 175.71L69.1613 211.119L77.2439 211.766L91.7958 173.339L75.8087 137.264L46.9525 143.64Z" fill="#2F2E41"/>
<path d="M50.875 83.8552C56.2094 83.8552 60.5337 79.9863 60.5337 75.2137C60.5337 70.4412 56.2094 66.5723 50.875 66.5723C45.5406 66.5723 41.2162 70.4412 41.2162 75.2137C41.2162 79.9863 45.5406 83.8552 50.875 83.8552Z" fill="#CB8E97"/>
<path d="M71.1516 92.09L59.9304 89.0481L58.4701 85.0305L46.4365 86.778L43.8798 90.7002L35.6031 97.5856L45.3002 136.813L45.0066 145.381C45.0066 145.381 51.213 147.88 78.1288 142.125C78.4516 142.056 77.7759 141.754 77.7759 141.754L71.1516 92.09Z" fill="#3F3D56"/>
<path d="M81.8083 135.331L68.6545 119.572L64.9254 91.6427L65.0342 91.5958C66.0526 91.1571 67.177 90.9518 68.3061 90.9984C69.4353 91.0451 70.5337 91.3421 71.5027 91.8629C72.4716 92.3837 73.2806 93.1118 73.8569 93.9817C74.4332 94.8517 74.7587 95.8362 74.8042 96.8467L75.5795 114.105L88.6435 129.529L81.8083 135.331Z" fill="#3F3D56"/>
<path d="M40.8313 80.117C40.764 80.0348 40.6974 79.952 40.6314 79.8684C40.6048 79.9186 40.5837 79.9704 40.5533 80.0194L40.8313 80.117Z" fill="#2F2E41"/>
<path d="M60.4829 68.8928C59.8372 67.6344 58.6861 66.6395 57.2582 66.1056C55.8429 65.5949 54.2611 65.5961 52.8468 66.1091C51.5699 65.3873 50.1511 64.8151 48.6569 64.7442C47.1628 64.6733 45.583 65.1693 44.6622 66.261C44.4566 66.5491 44.223 66.8206 43.9643 67.0722C43.2241 67.6854 42.0993 67.5969 41.1155 67.4715C41.5568 67.8099 41.9981 68.1482 42.4396 68.4866C41.9055 68.6114 41.3713 68.7363 40.8371 68.8611C41.4604 69.1994 42.0837 69.5376 42.707 69.8758C40.8974 70.8476 40.075 72.9685 40.2922 74.8948C40.4978 76.7185 41.4819 78.3862 42.6583 79.8684C43.1276 78.9824 43.0265 77.9222 43.0188 76.9243C43.0107 75.8698 43.2192 74.6725 44.1636 74.0832C44.8006 73.6857 45.6198 73.668 46.388 73.6717C50.2629 73.6908 54.1335 73.9069 57.981 74.3192C58.5031 74.3394 59.0121 74.4715 59.4653 74.7044C60.3161 75.2237 60.4819 76.2954 60.5673 77.2356C61.0169 75.6832 61.2369 74.0847 61.2217 72.4811C61.2596 71.2518 61.0078 70.0292 60.4829 68.8928Z" fill="#2F2E41"/>
<path d="M59.5333 173.792C67.9292 173.792 74.7355 167.702 74.7355 160.191C74.7355 152.679 67.9292 146.59 59.5333 146.59C51.1373 146.59 44.331 152.679 44.331 160.191C44.331 167.702 51.1373 173.792 59.5333 173.792Z" fill="#F0F0F0"/>
<path d="M59.5333 146.287C58.7518 146.287 57.9715 146.34 57.1988 146.445C56.8036 146.496 56.4186 146.562 56.0367 146.644C53.2322 147.222 50.6624 148.487 48.6141 150.295C46.5658 152.104 45.1195 154.387 44.4367 156.888C43.7538 159.39 43.8612 162.012 44.7469 164.462C45.6326 166.912 47.2617 169.093 49.4525 170.763C49.7127 170.96 49.9761 171.15 50.2497 171.332C52.222 172.647 54.5153 173.525 56.9408 173.893C59.3663 174.26 61.8548 174.108 64.2014 173.447C66.548 172.786 68.6857 171.636 70.4385 170.092C72.1913 168.547 73.5091 166.652 74.2835 164.563C75.0579 162.474 75.2668 160.25 74.8928 158.075C74.5189 155.9 73.573 153.835 72.1328 152.05C70.6926 150.266 68.7994 148.813 66.6089 147.811C64.4185 146.809 61.9934 146.287 59.5333 146.287H59.5333ZM59.5333 173.49C56.3726 173.493 53.2941 172.589 50.7497 170.911C50.4728 170.73 50.2059 170.543 49.9457 170.343C47.8113 168.732 46.2275 166.616 45.3761 164.236C44.5248 161.857 44.4402 159.311 45.1321 156.891C45.8241 154.47 47.2645 152.273 49.2883 150.552C51.312 148.83 53.8371 147.654 56.574 147.158C56.9522 147.088 57.3306 147.034 57.7158 146.992C58.3187 146.925 58.9257 146.891 59.5333 146.892C63.4755 146.892 67.2564 148.293 70.044 150.787C72.8316 153.281 74.3977 156.664 74.3977 160.191C74.3977 163.718 72.8316 167.1 70.044 169.594C67.2564 172.088 63.4755 173.49 59.5333 173.49Z" fill="#3F3D56"/>
<path d="M52.101 157.47H66.9655C67.5252 157.47 67.9789 157.064 67.9789 156.564C67.9789 156.063 67.5252 155.657 66.9655 155.657H52.101C51.5413 155.657 51.0875 156.063 51.0875 156.564C51.0875 157.064 51.5413 157.47 52.101 157.47Z" fill="#6C63FF"/>
<path d="M52.101 161.097H66.9655C67.5252 161.097 67.9789 160.691 67.9789 160.191C67.9789 159.69 67.5252 159.284 66.9655 159.284H52.101C51.5413 159.284 51.0875 159.69 51.0875 160.191C51.0875 160.691 51.5413 161.097 52.101 161.097Z" fill="#6C63FF"/>
<path d="M52.101 164.725H66.9655C67.5252 164.725 67.9789 164.319 67.9789 163.818C67.9789 163.317 67.5252 162.911 66.9655 162.911H52.101C51.5413 162.911 51.0875 163.317 51.0875 163.818C51.0875 164.319 51.5413 164.725 52.101 164.725Z" fill="#6C63FF"/>
<path d="M60.5061 150.451C60.0153 150.383 59.547 150.22 59.1344 149.972C58.7217 149.725 58.3746 149.4 58.1176 149.02C57.8606 148.64 57.6998 148.214 57.6467 147.772C57.5936 147.33 57.6494 146.883 57.8102 146.463L48.3007 139.809L54.2475 138.022L62.3662 144.614C63.1376 144.903 63.764 145.434 64.1267 146.108C64.4893 146.782 64.5629 147.552 64.3337 148.272C64.1044 148.991 63.5881 149.61 62.8826 150.012C62.1772 150.413 61.3316 150.569 60.5061 150.451H60.5061Z" fill="#CB8E97"/>
<path d="M41.4594 97.4746L35.6031 97.5857C34.4543 98.5325 33.5401 99.6842 32.9195 100.967C32.299 102.249 31.9858 103.633 32.0002 105.031V129.788L53.9753 146.225L61.0811 140.069L44.7248 124.126L41.4594 97.4746Z" fill="#3F3D56"/>
<path d="M304 38.5583H86.4855V163.192H304V38.5583Z" fill="#E6E6E6"/>
<path d="M297.78 54.1907H92.7053V155.819H297.78V54.1907Z" fill="white"/>
<path d="M303.907 38.448H86.3926V46.7155H303.907V38.448Z" fill="#6C63FF"/>
<path d="M93.2596 44.2072C94.2055 44.2072 94.9723 43.5212 94.9723 42.6749C94.9723 41.8286 94.2055 41.1426 93.2596 41.1426C92.3137 41.1426 91.5469 41.8286 91.5469 42.6749C91.5469 43.5212 92.3137 44.2072 93.2596 44.2072Z" fill="white"/>
<path d="M99.7607 44.2072C100.707 44.2072 101.473 43.5212 101.473 42.6749C101.473 41.8286 100.707 41.1426 99.7607 41.1426C98.8148 41.1426 98.048 41.8286 98.048 42.6749C98.048 43.5212 98.8148 44.2072 99.7607 44.2072Z" fill="white"/>
<path d="M106.262 44.2072C107.208 44.2072 107.974 43.5212 107.974 42.6749C107.974 41.8286 107.208 41.1426 106.262 41.1426C105.316 41.1426 104.549 41.8286 104.549 42.6749C104.549 43.5212 105.316 44.2072 106.262 44.2072Z" fill="white"/>
<path d="M217.042 64.7354H173.13V86.9045H217.042V64.7354Z" fill="#6C63FF"/>
<path d="M217.042 93.0784H173.13V116.931H217.042V93.0784Z" fill="#E6E6E6"/>
<path d="M279.146 64.7354H226.452V99.8337H279.146V64.7354Z" fill="#E6E6E6"/>
<path d="M279.146 110.176H226.452V145.274H279.146V110.176Z" fill="#6C63FF"/>
<path d="M164.285 64.7354H111.59V99.8337H164.285V64.7354Z" fill="#E6E6E6"/>
<path d="M209.862 24.0715L194.85 74.5933L195.538 74.7568L210.408 24.7081L209.862 24.0715Z" fill="#3F3D56"/>
<path d="M253.19 127.425L238.32 177.474L238.867 178.11L253.878 127.588L253.19 127.425Z" fill="#3F3D56"/>
<path d="M163.247 121.094H112.572C112.259 121.094 111.958 120.983 111.736 120.784C111.514 120.586 111.39 120.317 111.39 120.036C111.39 119.756 111.514 119.487 111.736 119.288C111.958 119.09 112.259 118.979 112.572 118.979H163.247C163.56 118.979 163.861 119.09 164.083 119.288C164.304 119.487 164.429 119.756 164.429 120.036C164.429 120.317 164.304 120.586 164.083 120.784C163.861 120.983 163.56 121.094 163.247 121.094Z" fill="#E6E6E6"/>
<path d="M163.247 115.049H112.572C112.259 115.049 111.958 114.938 111.736 114.739C111.514 114.541 111.39 114.272 111.39 113.991C111.39 113.711 111.514 113.442 111.736 113.243C111.958 113.045 112.259 112.934 112.572 112.934H163.247C163.56 112.934 163.861 113.045 164.083 113.243C164.304 113.442 164.429 113.711 164.429 113.991C164.429 114.272 164.304 114.541 164.083 114.739C163.861 114.938 163.56 115.049 163.247 115.049Z" fill="#E6E6E6"/>
<path d="M163.247 127.139H112.572C112.259 127.139 111.958 127.028 111.736 126.829C111.514 126.631 111.39 126.362 111.39 126.081C111.39 125.801 111.514 125.532 111.736 125.333C111.958 125.135 112.259 125.023 112.572 125.023H163.247C163.56 125.023 163.861 125.135 164.083 125.333C164.304 125.532 164.429 125.801 164.429 126.081C164.429 126.362 164.304 126.631 164.083 126.829C163.861 127.028 163.56 127.139 163.247 127.139Z" fill="#E6E6E6"/>
<path d="M163.247 133.184H112.572C112.259 133.184 111.958 133.073 111.736 132.874C111.514 132.676 111.39 132.407 111.39 132.126C111.39 131.846 111.514 131.577 111.736 131.378C111.958 131.18 112.259 131.069 112.572 131.069H163.247C163.56 131.069 163.861 131.18 164.083 131.378C164.304 131.577 164.429 131.846 164.429 132.126C164.429 132.407 164.304 132.676 164.083 132.874C163.861 133.073 163.56 133.184 163.247 133.184Z" fill="#E6E6E6"/>
<path d="M163.247 139.229H112.572C112.259 139.229 111.958 139.118 111.736 138.919C111.514 138.721 111.39 138.452 111.39 138.171C111.39 137.891 111.514 137.622 111.736 137.423C111.958 137.225 112.259 137.114 112.572 137.114H163.247C163.56 137.114 163.861 137.225 164.083 137.423C164.304 137.622 164.429 137.891 164.429 138.171C164.429 138.452 164.304 138.721 164.083 138.919C163.861 139.118 163.56 139.229 163.247 139.229Z" fill="#E6E6E6"/>
<path d="M163.247 145.274H112.572C112.259 145.274 111.958 145.163 111.736 144.964C111.514 144.766 111.39 144.497 111.39 144.216C111.39 143.936 111.514 143.667 111.736 143.468C111.958 143.27 112.259 143.158 112.572 143.158H163.247C163.56 143.158 163.861 143.27 164.083 143.468C164.304 143.667 164.429 143.936 164.429 144.216C164.429 144.497 164.304 144.766 164.083 144.964C163.861 145.163 163.56 145.274 163.247 145.274Z" fill="#E6E6E6"/>
<path d="M216.031 127.139H174.141C173.827 127.139 173.526 127.028 173.305 126.829C173.083 126.631 172.958 126.362 172.958 126.081C172.958 125.801 173.083 125.532 173.305 125.333C173.526 125.135 173.827 125.023 174.141 125.023H216.031C216.345 125.023 216.646 125.135 216.867 125.333C217.089 125.532 217.214 125.801 217.214 126.081C217.214 126.362 217.089 126.631 216.867 126.829C216.646 127.028 216.345 127.139 216.031 127.139Z" fill="#E6E6E6"/>
<path d="M216.031 133.184H174.141C173.827 133.184 173.526 133.073 173.305 132.874C173.083 132.676 172.958 132.407 172.958 132.126C172.958 131.846 173.083 131.577 173.305 131.378C173.526 131.18 173.827 131.069 174.141 131.069H216.031C216.345 131.069 216.646 131.18 216.867 131.378C217.089 131.577 217.214 131.846 217.214 132.126C217.214 132.407 217.089 132.676 216.867 132.874C216.646 133.073 216.345 133.184 216.031 133.184Z" fill="#E6E6E6"/>
<path d="M216.031 139.229H174.141C173.827 139.229 173.526 139.118 173.305 138.919C173.083 138.721 172.958 138.452 172.958 138.171C172.958 137.891 173.083 137.622 173.305 137.423C173.526 137.225 173.827 137.114 174.141 137.114H216.031C216.345 137.114 216.646 137.225 216.867 137.423C217.089 137.622 217.214 137.891 217.214 138.171C217.214 138.452 217.089 138.721 216.867 138.919C216.646 139.118 216.345 139.229 216.031 139.229Z" fill="#E6E6E6"/>
<path d="M216.031 145.274H174.141C173.827 145.274 173.526 145.163 173.305 144.964C173.083 144.766 172.958 144.497 172.958 144.216C172.958 143.936 173.083 143.667 173.305 143.468C173.526 143.27 173.827 143.158 174.141 143.158H216.031C216.345 143.158 216.646 143.27 216.867 143.468C217.089 143.667 217.214 143.936 217.214 144.216C217.214 144.497 217.089 144.766 216.867 144.964C216.646 145.163 216.345 145.274 216.031 145.274Z" fill="#E6E6E6"/>
<path d="M210.88 27.5045C219.276 27.5045 226.082 21.415 226.082 13.9033C226.082 6.39167 219.276 0.302246 210.88 0.302246C202.484 0.302246 195.678 6.39167 195.678 13.9033C195.678 21.415 202.484 27.5045 210.88 27.5045Z" fill="#F0F0F0"/>
<path d="M210.88 3.22265e-07C210.099 8.35721e-05 209.318 0.0526194 208.546 0.157168C208.151 0.20855 207.766 0.27503 207.384 0.356652C204.579 0.935027 202.009 2.19919 199.961 4.00809C197.913 5.817 196.466 8.0995 195.784 10.6009C195.101 13.1024 195.208 15.7244 196.094 18.1744C196.98 20.6244 198.609 22.806 200.799 24.4759C201.06 24.6724 201.323 24.8628 201.597 25.0442C203.569 26.3598 205.862 27.2376 208.288 27.6053C210.713 27.973 213.202 27.8202 215.548 27.1594C217.895 26.4985 220.033 25.3486 221.785 23.8042C223.538 22.2598 224.856 20.3651 225.63 18.276C226.405 16.1868 226.614 13.9631 226.24 11.7876C225.866 9.61221 224.92 7.54731 223.48 5.76288C222.04 3.97845 220.146 2.52551 217.956 1.52361C215.765 0.521722 213.34 -0.000473578 210.88 3.22265e-07ZM210.88 27.2022C207.72 27.2053 204.641 26.3016 202.097 24.624C201.82 24.4427 201.553 24.2553 201.293 24.0558C199.158 22.4449 197.574 20.3284 196.723 17.949C195.872 15.5696 195.787 13.0237 196.479 10.6033C197.171 8.18284 198.611 5.9859 200.635 4.26443C202.659 2.54296 205.184 1.36667 207.921 0.87047C208.299 0.800953 208.678 0.746548 209.063 0.704233C209.666 0.637429 210.273 0.60412 210.88 0.604494C214.822 0.604494 218.603 2.00562 221.391 4.49964C224.179 6.99366 225.745 10.3763 225.745 13.9034C225.745 17.4304 224.179 20.813 221.391 23.3071C218.603 25.8011 214.822 27.2022 210.88 27.2022Z" fill="#3F3D56"/>
<path d="M203.448 11.1831L218.312 11.1831C218.872 11.1831 219.326 10.7771 219.326 10.2764C219.326 9.77559 218.872 9.36963 218.312 9.36963L203.448 9.36963C202.888 9.36963 202.435 9.77559 202.435 10.2764C202.435 10.7771 202.888 11.1831 203.448 11.1831Z" fill="#6C63FF"/>
<path d="M203.448 14.8101L218.312 14.8101C218.872 14.8101 219.326 14.4041 219.326 13.9033C219.326 13.4025 218.872 12.9966 218.312 12.9966L203.448 12.9966C202.888 12.9966 202.435 13.4025 202.435 13.9033C202.435 14.4041 202.888 14.8101 203.448 14.8101Z" fill="#6C63FF"/>
<path d="M203.448 18.437H218.312C218.872 18.437 219.326 18.0311 219.326 17.5303C219.326 17.0295 218.872 16.6235 218.312 16.6235H203.448C202.888 16.6235 202.435 17.0295 202.435 17.5303C202.435 18.0311 202.888 18.437 203.448 18.437Z" fill="#6C63FF"/>
<path d="M236.555 203.412C244.951 203.412 251.757 197.323 251.757 189.811C251.757 182.299 244.951 176.21 236.555 176.21C228.159 176.21 221.353 182.299 221.353 189.811C221.353 197.323 228.159 203.412 236.555 203.412Z" fill="#F0F0F0"/>
<path d="M236.555 175.908C235.774 175.908 234.993 175.96 234.221 176.065C233.825 176.116 233.44 176.183 233.059 176.264C230.254 176.843 227.684 178.107 225.636 179.916C223.588 181.725 222.141 184.007 221.459 186.509C220.776 189.01 220.883 191.632 221.769 194.082C222.654 196.532 224.284 198.714 226.474 200.384C226.735 200.58 226.998 200.771 227.272 200.952C229.244 202.267 231.537 203.145 233.963 203.513C236.388 203.881 238.877 203.728 241.223 203.067C243.57 202.406 245.708 201.256 247.46 199.712C249.213 198.168 250.531 196.273 251.305 194.184C252.08 192.095 252.289 189.871 251.915 187.695C251.541 185.52 250.595 183.455 249.155 181.671C247.714 179.886 245.821 178.433 243.631 177.431C241.44 176.429 239.015 175.907 236.555 175.908ZM236.555 203.11C233.394 203.113 230.316 202.209 227.772 200.532C227.495 200.35 227.228 200.163 226.968 199.964C224.833 198.353 223.249 196.236 222.398 193.857C221.547 191.477 221.462 188.931 222.154 186.511C222.846 184.091 224.286 181.894 226.31 180.172C228.334 178.451 230.859 177.274 233.596 176.778C233.974 176.709 234.352 176.654 234.738 176.612C235.341 176.545 235.948 176.512 236.555 176.512C240.497 176.512 244.278 177.913 247.066 180.407C249.853 182.901 251.42 186.284 251.42 189.811C251.42 193.338 249.853 196.721 247.066 199.215C244.278 201.709 240.497 203.11 236.555 203.11Z" fill="#3F3D56"/>
<path d="M229.123 187.091H243.987C244.547 187.091 245.001 186.685 245.001 186.184C245.001 185.683 244.547 185.277 243.987 185.277H229.123C228.563 185.277 228.109 185.683 228.109 186.184C228.109 186.685 228.563 187.091 229.123 187.091Z" fill="#6C63FF"/>
<path d="M229.123 190.718H243.987C244.547 190.718 245.001 190.312 245.001 189.811C245.001 189.31 244.547 188.904 243.987 188.904H229.123C228.563 188.904 228.109 189.31 228.109 189.811C228.109 190.312 228.563 190.718 229.123 190.718Z" fill="#6C63FF"/>
<path d="M229.123 194.345H243.987C244.547 194.345 245.001 193.939 245.001 193.438C245.001 192.937 244.547 192.531 243.987 192.531H229.123C228.563 192.531 228.109 192.937 228.109 193.438C228.109 193.939 228.563 194.345 229.123 194.345Z" fill="#6C63FF"/>
<path d="M117.39 221H0.402243C0.295762 221 0.193751 220.962 0.118566 220.894C0.0433822 220.827 0.00115967 220.735 0.00115967 220.64C0.00115967 220.545 0.0433822 220.453 0.118566 220.386C0.193751 220.319 0.295762 220.281 0.402243 220.28H117.39C117.497 220.281 117.599 220.319 117.674 220.386C117.749 220.453 117.791 220.545 117.791 220.64C117.791 220.735 117.749 220.827 117.674 220.894C117.599 220.962 117.497 221 117.39 221Z" fill="#CACACA"/>
</g>
<defs>
<clipPath id="clip0_9_322">
<rect width="304" height="221" fill="white"/>
</clipPath>
</defs>
</svg>
