<svg width="270" height="200" viewBox="0 0 270 200" fill="none" xmlns="http://www.w3.org/2000/svg">
<g clip-path="url(#clip0_9_304)">
<path d="M110.37 28.2676H0V79.3314H110.37V28.2676Z" fill="#6C63FF"/>
<path d="M118.518 74.7721H7.40735V23.1003H118.518V74.7721ZM8.14809 74.1642H117.778V23.7082H8.14809V74.1642Z" fill="#3F3D56"/>
<path d="M261.852 5.16724H151.481V56.2311H261.852V5.16724Z" fill="#F2F2F2"/>
<path d="M270 51.6717H158.889V0H270V51.6717ZM159.63 51.0638H269.259V0.607903H159.63V51.0638Z" fill="#3F3D56"/>
<path d="M189.672 200H48.5608C48.4626 200 48.3684 199.968 48.2989 199.911C48.2294 199.854 48.1904 199.777 48.1904 199.696C48.1904 199.615 48.2294 199.538 48.2989 199.481C48.3684 199.424 48.4626 199.392 48.5608 199.392H189.672C189.77 199.392 189.864 199.424 189.934 199.481C190.003 199.538 190.042 199.615 190.042 199.696C190.042 199.777 190.003 199.854 189.934 199.911C189.864 199.968 189.77 200 189.672 200Z" fill="#CCCCCC"/>
<path d="M136.9 128.186C136.932 127.637 137.11 127.1 137.422 126.613C137.734 126.126 138.173 125.701 138.706 125.368C139.24 125.035 139.856 124.802 140.512 124.686C141.167 124.57 141.845 124.573 142.499 124.695L148.562 117.682L154.654 119.667L145.922 129.472C145.599 130.359 144.89 131.119 143.931 131.606C142.971 132.094 141.827 132.276 140.715 132.117C139.603 131.959 138.601 131.471 137.898 130.747C137.195 130.022 136.84 129.111 136.9 128.186L136.9 128.186Z" fill="#A0616A"/>
<path d="M143.552 122.155L154.333 107.274L149.941 97.6617L155.923 84.5693L156.144 84.647C156.289 84.6979 159.688 85.9427 160.191 90.4007L167.066 108.132L148.718 127.666L143.552 122.155Z" fill="#3F3D56"/>
<path d="M84.9994 67.4493C85.6646 67.5177 86.3033 67.705 86.8707 67.998C87.4381 68.2909 87.9203 68.6824 88.2834 69.1448C88.6465 69.6073 88.8816 70.1294 88.9722 70.6745C89.0628 71.2196 89.0067 71.7744 88.8078 72.2997L96.8588 77.8033L93.9767 82.6343L82.7401 74.731C81.6868 74.3983 80.8189 73.76 80.3007 72.9372C79.7826 72.1144 79.6502 71.1642 79.9287 70.2666C80.2072 69.369 80.8772 68.5865 81.8118 68.0672C82.7463 67.548 83.8805 67.3281 84.9994 67.4493Z" fill="#CB8E97"/>
<path d="M91.8123 73.3582L109.057 83.3299L121.074 80.4792L136.517 86.3862L136.406 86.5607C136.333 86.6752 134.558 89.3602 129.103 89.4277L107.03 93.6818L84.7172 77.1591L91.8123 73.3582Z" fill="#3F3D56"/>
<path d="M123.366 194.619H117.372L114.519 175.642L123.367 175.643L123.366 194.619Z" fill="#CB8E97"/>
<path d="M111.323 193.213H124.651V199.187H105.81V197.738C105.81 196.538 106.39 195.387 107.424 194.538C108.458 193.69 109.861 193.213 111.323 193.213Z" fill="#2F2E41"/>
<path d="M147.327 194.619H141.332L138.48 175.642L147.328 175.643L147.327 194.619Z" fill="#CB8E97"/>
<path d="M135.284 193.213H148.612V199.187H129.77V197.738C129.77 196.538 130.351 195.387 131.385 194.538C132.419 193.69 133.822 193.213 135.284 193.213Z" fill="#2F2E41"/>
<path d="M149.459 125.352L148.97 153.443L148.481 190.363L137.723 189.56L132.344 138.595L125.499 189.56H114.392L113.274 138.194L117.186 126.957L149.459 125.352Z" fill="#2F2E41"/>
<path d="M116.113 127.128L114.474 127.07L122.087 92.6545L118.97 82.2523C118.808 81.7111 118.893 81.1399 119.21 80.647C119.527 80.1541 120.053 79.7737 120.689 79.5779L126.297 77.8522L128.279 73.3806L143.911 74.763L144.295 78.2576C145.989 78.7035 159.938 82.516 158.976 86.8601C158.026 91.1478 152.417 104.638 152.132 105.321L151.15 124.668L151.029 124.717C150.883 124.777 140.109 129.125 128.403 129.124C124.281 129.124 120.042 128.584 116.113 127.128Z" fill="#3F3D56"/>
<path d="M145.358 66.3616C148.339 61.8855 146.335 56.2732 140.881 53.8264C135.426 51.3795 128.588 53.0245 125.606 57.5007C122.625 61.9768 124.629 67.5891 130.083 70.036C135.538 72.4828 142.376 70.8378 145.358 66.3616Z" fill="#CB8E97"/>
<path d="M144.598 70.8724C142.454 72.7475 138.47 71.7409 138.191 69.1793C138.169 68.9804 138.17 68.7802 138.195 68.5816C138.34 67.4469 139.138 66.4167 138.947 65.2187C138.904 64.9205 138.768 64.6363 138.554 64.3931C136.845 62.5147 132.832 65.2332 131.219 63.5328C130.23 62.4901 131.393 60.8485 130.634 59.6831C129.632 58.145 126.664 58.9038 124.804 58.0614C122.733 57.1242 122.857 54.5173 124.22 52.9316C125.882 50.9978 128.796 49.9659 131.674 49.8172C134.552 49.6685 137.41 50.307 140.097 51.1663C143.149 52.1426 146.177 53.4919 148.055 55.6948C150.34 58.3737 150.56 61.9753 149.417 65.1078C148.722 67.0134 146.35 69.3412 144.598 70.8724Z" fill="#2F2E41"/>
</g>
<defs>
<clipPath id="clip0_9_304">
<rect width="270" height="200" fill="white"/>
</clipPath>
</defs>
</svg>
