<svg width="300" height="300" viewBox="0 0 300 300" fill="none" xmlns="http://www.w3.org/2000/svg">
<path d="M296.834 190.413C293.668 226.754 275.201 256.741 241.431 280.375C207.662 304.009 172.969 306.297 137.352 287.237C101.736 268.177 68.3625 247.974 37.2313 226.627C6.10004 205.28 -5.50822 176.436 2.4065 140.095C10.3212 103.755 24.3039 70.8449 44.3545 41.3658C64.4051 11.8867 92.3705 -1.8363 128.251 0.196746C164.131 2.22979 201.198 6.55 239.452 13.1574C277.707 19.7648 297.626 41.8741 299.209 79.4854C300.791 117.097 300 154.073 296.834 190.413Z" fill="#C6CBF4"/>
<g clip-path="url(#clip0_78_211)">
<path d="M250.594 49.7195H124.068V110.729H250.594V49.7195Z" fill="#E6E6E6"/>
<path d="M246.976 54.9512H127.686V105.853H246.976V54.9512Z" fill="white"/>
<path d="M250.54 46.1947H124.014V51.6568H250.54V46.1947Z" fill="#6C63FF"/>
<path d="M128.009 50.4189C128.559 50.4189 129.005 49.9657 129.005 49.4065C129.005 48.8474 128.559 48.3942 128.009 48.3942C127.458 48.3942 127.012 48.8474 127.012 49.4065C127.012 49.9657 127.458 50.4189 128.009 50.4189Z" fill="white"/>
<path d="M131.79 50.4189C132.34 50.4189 132.786 49.9657 132.786 49.4065C132.786 48.8474 132.34 48.3942 131.79 48.3942C131.24 48.3942 130.794 48.8474 130.794 49.4065C130.794 49.9657 131.24 50.4189 131.79 50.4189Z" fill="white"/>
<path d="M135.572 50.4189C136.122 50.4189 136.568 49.9657 136.568 49.4065C136.568 48.8474 136.122 48.3942 135.572 48.3942C135.021 48.3942 134.575 48.8474 134.575 49.4065C134.575 49.9657 135.021 50.4189 135.572 50.4189Z" fill="white"/>
<path d="M218.892 63.1879H199.059V97.6171H218.892V63.1879Z" fill="#F2F2F2"/>
<path d="M195.773 63.1873H155.77V72.6643H195.773V63.1873Z" fill="#6C63FF"/>
<path d="M195.773 75.3035H155.77V85.5002H195.773V75.3035Z" fill="#F2F2F2"/>
<path d="M195.773 88.1394H155.77V97.6164H195.773V88.1394Z" fill="#F2F2F2"/>
<path d="M99.9796 147.995C99.9834 147.297 99.8421 146.606 99.5648 145.967C99.2876 145.329 98.8807 144.757 98.3708 144.289C97.8609 143.822 97.2596 143.469 96.6061 143.254C95.9527 143.039 95.2619 142.966 94.579 143.041C94.363 143.066 94.1489 143.106 93.9383 143.161L77.4379 128.789L78.424 123.389L70.2912 120.71L67.8391 129.365C67.5491 130.404 67.5963 131.51 67.9739 132.519C68.3514 133.529 69.0392 134.387 69.935 134.968L90.2333 148.014C90.2335 148.176 90.2418 148.338 90.2583 148.5C90.3324 149.194 90.55 149.864 90.8968 150.466C91.2436 151.069 91.7117 151.59 92.2706 151.996C92.8295 152.402 93.4664 152.683 94.1398 152.822C94.8131 152.96 95.5075 152.952 96.1777 152.798C96.3724 152.755 96.5643 152.698 96.7521 152.63C97.6916 152.285 98.5045 151.656 99.0815 150.827C99.6585 149.998 99.9719 149.01 99.9796 147.995V147.995Z" fill="#CB8E97"/>
<path d="M58.9575 164.663H80.2319C80.2319 165.284 102.158 165.789 102.158 165.789C102.502 166.052 102.816 166.354 103.093 166.689C103.926 167.699 104.381 168.975 104.378 170.292V171.192C104.377 172.685 103.794 174.116 102.755 175.172C101.716 176.227 100.308 176.82 98.8389 176.821H58.9575C57.4889 176.82 56.0807 176.226 55.0422 175.171C54.0037 174.116 53.4197 172.685 53.4185 171.192V170.292C53.4205 168.8 54.0047 167.369 55.0431 166.314C56.0814 165.259 57.4891 164.665 58.9575 164.663V164.663Z" fill="#3F3D56"/>
<path d="M82.0991 176.597H76.3385V214.422H82.0991V176.597Z" fill="#3F3D56"/>
<path d="M98.4948 214.892C98.4948 215.6 89.7655 215.166 78.9973 215.166C68.2291 215.166 59.4998 215.6 59.4998 214.892C59.4998 214.184 68.2291 208.568 78.9973 208.568C89.7655 208.568 98.4948 214.184 98.4948 214.892Z" fill="#3F3D56"/>
<path d="M93.2947 209.783L98.7269 209.782L101.312 195.464L93.2936 195.465L93.2947 209.783Z" fill="#CB8E97"/>
<path d="M91.909 215.134L109.426 215.133V214.908C109.426 213.998 109.25 213.097 108.907 212.257C108.564 211.416 108.062 210.652 107.429 210.009C106.796 209.366 106.044 208.855 105.217 208.507C104.39 208.159 103.503 207.98 102.608 207.98H102.607L91.9087 207.98L91.909 215.134Z" fill="#2F2E41"/>
<path d="M101.42 200.904L112.25 176.225C113.155 174.145 113.255 171.795 112.53 169.643C111.806 167.491 110.311 165.696 108.343 164.614L84.8509 151.814L74.1312 150.887L64.2429 149.974L64.1716 150.096C64.0804 150.253 61.9544 153.984 63.3915 158.076C64.4816 161.18 67.3171 163.604 71.8192 165.282C82.3277 169.197 94.467 172.544 99.1984 173.8C99.4075 173.855 99.6029 173.953 99.7718 174.09C99.9407 174.227 100.079 174.398 100.178 174.593C100.278 174.785 100.337 174.997 100.352 175.214C100.366 175.431 100.337 175.648 100.265 175.853L90.2034 198.825C90.0983 199.116 90.0605 199.428 90.0928 199.736C90.1251 200.045 90.2267 200.342 90.3898 200.604C90.5529 200.866 90.7732 201.087 91.0335 201.249C91.2938 201.412 91.5873 201.511 91.8914 201.539L99.4097 202.096C99.4735 202.102 99.5371 202.105 99.6003 202.105C99.9854 202.105 100.362 201.991 100.685 201.778C101.008 201.565 101.263 201.261 101.42 200.904V200.904Z" fill="#CBCBCB"/>
<path d="M89.7495 209.783L95.1817 209.782L97.7666 195.464L89.7487 195.465L89.7495 209.783Z" fill="#CB8E97"/>
<path d="M88.364 215.134L105.881 215.133V214.908C105.881 213.998 105.705 213.097 105.362 212.257C105.019 211.416 104.517 210.652 103.884 210.009C103.251 209.366 102.499 208.855 101.672 208.507C100.845 208.159 99.9585 207.98 99.0631 207.98H99.0624L88.3636 207.98L88.364 215.134Z" fill="#2F2E41"/>
<path d="M97.4318 202.255L108.262 177.576C109.166 175.495 109.266 173.146 108.542 170.994C107.818 168.842 106.323 167.047 104.354 165.965L80.8628 153.164L70.1431 152.238L62.3981 151.555L62.3992 151.447C62.308 151.604 60.1819 155.335 61.6191 159.427C62.7092 162.531 63.329 164.955 67.8312 166.633C78.3396 170.548 90.4789 173.894 95.2103 175.151C95.4194 175.206 95.6148 175.304 95.7837 175.441C95.9526 175.577 96.0911 175.749 96.1901 175.944C96.2895 176.136 96.3484 176.348 96.3634 176.565C96.3784 176.781 96.349 176.999 96.2771 177.204L86.2153 200.175C86.1102 200.467 86.0724 200.779 86.1047 201.087C86.137 201.396 86.2387 201.693 86.4018 201.955C86.5649 202.217 86.7851 202.438 87.0454 202.6C87.3057 202.762 87.5993 202.862 87.9033 202.89L95.4216 203.447C95.4855 203.453 95.549 203.456 95.6122 203.456C95.9973 203.456 96.3741 203.342 96.697 203.129C97.0199 202.916 97.2751 202.612 97.4318 202.255Z" fill="#CBCBCB"/>
<path d="M77.0213 152.005C77.5405 151.632 84.9975 155.608 86.3269 152.456C80.1231 136.696 84.3982 129.89 80.5981 120.852C79.9288 119.293 78.9204 117.909 77.6489 116.803C76.3774 115.697 74.8758 114.899 73.2569 114.467L63.3975 113.962L63.3464 113.987C61.1216 115.094 59.3072 116.9 58.1722 119.138C57.0373 121.376 56.6421 123.926 57.0455 126.409C57.0806 136.245 62.8719 143.747 60.8469 150.881C60.762 151.179 60.7372 151.492 60.7741 151.8C60.8109 152.108 60.9086 152.406 61.0613 152.675C61.2094 152.935 61.4083 153.161 61.6458 153.34C61.8832 153.519 62.1542 153.646 62.442 153.714L75.4604 151.95C75.7645 152.023 76.0805 152.03 76.3874 151.97C76.6943 151.909 76.9851 151.783 77.2402 151.6L77.0213 152.005Z" fill="#2F2E41"/>
<path d="M66.6878 110.22C72.6987 110.22 77.5715 105.268 77.5715 99.16C77.5715 93.0519 72.6987 88.1003 66.6878 88.1003C60.677 88.1003 55.8042 93.0519 55.8042 99.16C55.8042 105.268 60.677 110.22 66.6878 110.22Z" fill="#CB8E97"/>
<path d="M63.2212 109.311C63.7995 109.568 64.9836 104.886 64.4532 103.95C63.6643 102.557 63.7109 102.567 63.1873 101.646C62.6636 100.724 62.5464 99.4629 63.2246 98.6522C63.9027 97.8414 65.4721 97.949 65.7816 98.9655C65.5825 97.0347 67.4619 95.4827 69.3235 95.0465C71.1851 94.6104 73.1487 94.8812 75.0206 94.493C77.193 94.0426 79.4533 92.1922 78.5865 89.7647C78.4378 89.3605 78.2151 88.9886 77.9302 88.6686C76.9288 87.5245 75.528 87.0359 74.1583 86.5635C71.309 85.5808 68.3817 84.5857 65.3746 84.6942C60.4337 84.8724 55.7634 88.3432 54.0987 93.0737C53.8915 93.664 53.7309 94.2701 53.6186 94.8863C52.5865 100.526 55.8093 106.089 61.0437 108.236L63.2212 109.311Z" fill="#2F2E41"/>
<path d="M120.297 127.096L121.545 134.627C121.559 134.711 121.55 134.797 121.519 134.876L111.727 159.737C111.688 159.836 111.618 159.918 111.526 159.97C111.435 160.021 111.33 160.04 111.227 160.022C111.124 160.004 111.03 159.951 110.961 159.871C110.892 159.792 110.852 159.691 110.848 159.585L110.433 149.594C110.43 149.528 110.442 149.461 110.466 149.4L119.424 126.998C119.462 126.905 119.528 126.826 119.614 126.775C119.699 126.723 119.798 126.701 119.897 126.712C119.996 126.723 120.088 126.767 120.16 126.836C120.232 126.905 120.28 126.996 120.297 127.096V127.096Z" fill="#3F3D56"/>
<path d="M119.604 127.674L120.79 134.144L112.1 156.83L110.972 149.533L119.604 127.674Z" fill="#6C63FF"/>
<path d="M81.5867 159.622C81.8004 160.47 109.87 161.388 110.161 161.131C110.422 160.803 110.648 160.447 110.836 160.07C111.13 159.536 111.402 159.001 111.402 159.001L110.941 149.98L83.2909 146.977C83.2909 146.977 82.0676 154.505 81.6836 157.963C81.5968 158.511 81.5643 159.067 81.5867 159.622Z" fill="#3F3D56"/>
<path opacity="0.1" d="M107.323 150.934L107.326 158.706L95.0963 157.822L95.6375 150.09L107.323 150.934Z" fill="black"/>
<path opacity="0.1" d="M91.3871 152.281L91.4611 152.271L90.8836 155.575L84.0894 155.084L84.3213 151.77L91.3871 152.281Z" fill="black"/>
<path opacity="0.1" d="M81.5867 159.622C81.8004 160.47 109.87 161.388 110.161 161.131C110.422 160.803 110.648 160.447 110.836 160.07L81.6836 157.963C81.5968 158.511 81.5643 159.067 81.5867 159.622Z" fill="black"/>
<path d="M70.3159 146.151L93.9934 150.641C94.0527 150.792 94.1195 150.939 94.1936 151.083C94.5154 151.698 94.9608 152.238 95.5011 152.666C96.0414 153.095 96.6644 153.403 97.3296 153.571C97.9975 153.742 98.6935 153.766 99.3712 153.641C100.049 153.516 100.692 153.246 101.259 152.848C102.285 152.132 103.003 151.044 103.265 149.808C103.528 148.572 103.314 147.28 102.67 146.198C102.025 145.116 100.998 144.326 99.7978 143.989C98.5981 143.652 97.317 143.795 96.2172 144.387C96.0256 144.491 95.8414 144.609 95.6659 144.739L75.1003 137.6L74.0477 132.213L65.5171 132.786L66.401 141.818C66.5083 142.872 66.9471 143.863 67.6523 144.643C68.3575 145.424 69.2916 145.953 70.3159 146.151V146.151Z" fill="#CB8E97"/>
<path d="M65.2281 136.815L77.6236 132.675L74.7322 124.238C74.3482 123.118 73.5869 122.172 72.5828 121.567C71.5787 120.962 70.3965 120.737 69.245 120.932V120.932C68.0801 121.129 67.0231 121.743 66.2648 122.663C65.5065 123.583 65.0969 124.748 65.1099 125.948L65.2281 136.815Z" fill="#2F2E41"/>
<path d="M143.86 215.575H39.8872C39.8148 215.575 39.7454 215.546 39.6942 215.494C39.643 215.442 39.6143 215.371 39.6143 215.298C39.6143 215.224 39.643 215.154 39.6942 215.102C39.7454 215.05 39.8148 215.021 39.8872 215.021H143.86C143.933 215.021 144.002 215.05 144.053 215.102C144.104 215.154 144.133 215.224 144.133 215.298C144.133 215.371 144.104 215.442 144.053 215.494C144.002 215.546 143.933 215.575 143.86 215.575Z" fill="#CBCBCB"/>
<path d="M184.305 206.838C189.292 209.461 191.509 215.171 191.509 215.171C191.509 215.171 185.641 216.629 180.654 214.006C175.668 211.384 173.45 205.674 173.45 205.674C173.45 205.674 179.318 204.216 184.305 206.838Z" fill="#F1F1F1"/>
<path d="M182.711 208.727C185.686 213.566 191.467 215.35 191.467 215.35C191.467 215.35 192.422 209.288 189.446 204.45C186.47 199.611 180.69 197.827 180.69 197.827C180.69 197.827 179.735 203.889 182.711 208.727Z" fill="#F1F1F1"/>
<path d="M200.622 215.465H169.512C169.44 215.465 169.371 215.436 169.319 215.384C169.268 215.332 169.24 215.261 169.24 215.188C169.24 215.114 169.268 215.044 169.319 214.992C169.371 214.94 169.44 214.911 169.512 214.911H200.622C200.695 214.911 200.764 214.94 200.815 214.992C200.867 215.044 200.895 215.114 200.895 215.188C200.895 215.261 200.867 215.332 200.815 215.384C200.764 215.436 200.695 215.465 200.622 215.465Z" fill="#CBCBCB"/>
</g>
<defs>
<clipPath id="clip0_78_211">
<rect width="210.979" height="169.381" fill="white" transform="translate(39.6143 46.1947)"/>
</clipPath>
</defs>
</svg>
