<svg width="301" height="301" viewBox="0 0 301 301" fill="none" xmlns="http://www.w3.org/2000/svg">
<g opacity="0.22">
<path d="M246.883 193.07C213.794 219.971 178.49 238.003 140.968 247.165C103.447 256.326 77.2594 242.305 62.4046 205.101C47.5498 167.896 46.2675 128.2 58.5576 86.0131C70.8478 43.8258 100.991 23.9777 148.988 26.4688C196.984 28.9599 233.571 50.624 258.749 91.4612C283.927 132.298 279.972 166.168 246.883 193.07Z" fill="#474BFF"/>
</g>
<g clip-path="url(#clip0_78_212)">
<path d="M221.252 69.4512H126.392V123.187H221.252V69.4512Z" fill="#E6E6E6"/>
<path d="M218.54 74.0591H129.105V118.892H218.54V74.0591Z" fill="white"/>
<path d="M221.212 66.3466H126.352V71.1575H221.212V66.3466Z" fill="#6C63FF"/>
<path d="M129.346 70.0672C129.759 70.0672 130.093 69.668 130.093 69.1756C130.093 68.6831 129.759 68.2839 129.346 68.2839C128.934 68.2839 128.599 68.6831 128.599 69.1756C128.599 69.668 128.934 70.0672 129.346 70.0672Z" fill="white"/>
<path d="M132.182 70.0672C132.594 70.0672 132.928 69.668 132.928 69.1756C132.928 68.6831 132.594 68.2839 132.182 68.2839C131.769 68.2839 131.435 68.6831 131.435 69.1756C131.435 69.668 131.769 70.0672 132.182 70.0672Z" fill="white"/>
<path d="M135.017 70.0672C135.429 70.0672 135.764 69.668 135.764 69.1756C135.764 68.6831 135.429 68.2839 135.017 68.2839C134.604 68.2839 134.27 68.6831 134.27 69.1756C134.27 69.668 134.604 70.0672 135.017 70.0672Z" fill="white"/>
<path d="M197.485 81.3138H182.615V111.638H197.485V81.3138Z" fill="#F2F2F2"/>
<path d="M180.152 81.3134H150.16V89.6605H180.152V81.3134Z" fill="#6C63FF"/>
<path d="M180.152 91.985H150.16V100.966H180.152V91.985Z" fill="#F2F2F2"/>
<path d="M180.152 103.291H150.16V111.638H180.152V103.291Z" fill="#F2F2F2"/>
<path d="M108.332 156.01C108.335 155.395 108.229 154.787 108.021 154.224C107.813 153.662 107.508 153.158 107.126 152.746C106.744 152.334 106.293 152.023 105.803 151.834C105.313 151.645 104.795 151.581 104.283 151.647C104.121 151.669 103.961 151.704 103.803 151.753L91.4321 139.094L92.1713 134.337L86.0739 131.978L84.2355 139.601C84.0181 140.516 84.0535 141.491 84.3366 142.38C84.6196 143.268 85.1352 144.025 85.8069 144.536L101.025 156.027C101.025 156.17 101.031 156.313 101.044 156.455C101.099 157.066 101.263 157.656 101.523 158.187C101.783 158.718 102.134 159.177 102.553 159.534C102.972 159.892 103.449 160.139 103.954 160.261C104.459 160.383 104.979 160.376 105.482 160.241C105.628 160.202 105.772 160.153 105.912 160.092C106.617 159.788 107.226 159.234 107.659 158.504C108.091 157.775 108.326 156.904 108.332 156.01V156.01Z" fill="#CB8E97"/>
<path d="M77.5768 170.691H93.5268C93.5268 171.238 109.965 171.683 109.965 171.683C110.223 171.914 110.458 172.181 110.666 172.476C111.291 173.365 111.632 174.488 111.63 175.649V176.442C111.629 177.757 111.192 179.017 110.413 179.947C109.634 180.876 108.578 181.399 107.477 181.399H77.5768C76.4757 181.398 75.4199 180.876 74.6413 179.946C73.8627 179.017 73.4249 177.756 73.424 176.442V175.649C73.4255 174.334 73.8635 173.074 74.642 172.145C75.4204 171.216 76.4758 170.693 77.5768 170.691V170.691Z" fill="#3F3D56"/>
<path d="M94.9267 181.203H90.6078V214.517H94.9267V181.203Z" fill="#3F3D56"/>
<path d="M107.219 214.932C107.219 215.556 100.674 215.173 92.6012 215.173C84.5279 215.173 77.9833 215.556 77.9833 214.932C77.9833 214.308 84.5279 209.362 92.6012 209.362C100.674 209.362 107.219 214.308 107.219 214.932Z" fill="#3F3D56"/>
<path d="M103.32 210.432L107.393 210.431L109.331 197.82L103.319 197.821L103.32 210.432Z" fill="#CB8E97"/>
<path d="M102.281 215.145L115.414 215.144V214.946C115.414 214.144 115.282 213.351 115.025 212.611C114.768 211.87 114.392 211.198 113.917 210.631C113.443 210.064 112.879 209.615 112.259 209.308C111.639 209.001 110.974 208.844 110.303 208.844H110.302L102.281 208.844L102.281 215.145Z" fill="#2F2E41"/>
<path d="M109.412 202.611L117.532 180.874C118.21 179.042 118.285 176.972 117.742 175.077C117.199 173.182 116.078 171.601 114.602 170.648L96.9897 159.373L88.9528 158.557L81.5393 157.753L81.4859 157.861C81.4175 157.999 79.8235 161.286 80.901 164.89C81.7183 167.623 83.8441 169.758 87.2195 171.236C95.098 174.685 104.199 177.632 107.747 178.739C107.903 178.787 108.05 178.874 108.176 178.994C108.303 179.114 108.407 179.265 108.481 179.437C108.556 179.607 108.6 179.793 108.611 179.984C108.622 180.175 108.6 180.367 108.546 180.547L101.003 200.78C100.924 201.036 100.896 201.311 100.92 201.583C100.944 201.855 101.02 202.116 101.142 202.347C101.265 202.578 101.43 202.773 101.625 202.916C101.82 203.058 102.04 203.146 102.268 203.171L107.905 203.661C107.953 203.666 108 203.669 108.048 203.669C108.337 203.669 108.619 203.569 108.861 203.381C109.103 203.194 109.295 202.926 109.412 202.611V202.611Z" fill="#CBCBCB"/>
<path d="M100.662 210.432L104.735 210.431L106.673 197.82L100.662 197.821L100.662 210.432Z" fill="#CB8E97"/>
<path d="M99.6237 215.145L112.757 215.144V214.946C112.757 214.144 112.625 213.351 112.368 212.611C112.111 211.87 111.734 211.198 111.26 210.631C110.785 210.064 110.221 209.615 109.601 209.308C108.981 209.001 108.316 208.844 107.645 208.844H107.645L99.6234 208.844L99.6237 215.145Z" fill="#2F2E41"/>
<path d="M106.422 203.801L114.542 182.064C115.22 180.232 115.295 178.162 114.752 176.267C114.209 174.372 113.088 172.791 111.612 171.838L93.9998 160.563L85.9628 159.747L80.1562 159.146L80.157 159.051C80.0886 159.189 78.4947 162.475 79.5721 166.079C80.3894 168.813 80.8541 170.948 84.2295 172.426C92.108 175.874 101.209 178.822 104.757 179.929C104.913 179.977 105.06 180.064 105.186 180.184C105.313 180.304 105.417 180.455 105.491 180.627C105.566 180.796 105.61 180.983 105.621 181.174C105.632 181.365 105.61 181.556 105.556 181.737L98.0127 201.97C97.9339 202.226 97.9055 202.501 97.9298 202.773C97.954 203.044 98.0302 203.306 98.1525 203.537C98.2748 203.768 98.4399 203.962 98.635 204.105C98.8302 204.248 99.0503 204.336 99.2782 204.361L104.915 204.851C104.963 204.856 105.01 204.859 105.058 204.859C105.347 204.859 105.629 204.759 105.871 204.571C106.113 204.383 106.305 204.116 106.422 203.801Z" fill="#CBCBCB"/>
<path d="M91.1197 159.542C91.509 159.214 97.0997 162.715 98.0964 159.939C93.4453 146.058 96.6504 140.064 93.8013 132.103C93.2995 130.731 92.5436 129.511 91.5903 128.537C90.637 127.563 89.5112 126.86 88.2974 126.48L80.9055 126.034L80.8673 126.056C79.1992 127.032 77.8389 128.623 76.988 130.594C76.1371 132.565 75.8408 134.81 76.1432 136.998C76.1695 145.661 80.5115 152.269 78.9933 158.552C78.9296 158.815 78.911 159.09 78.9387 159.362C78.9663 159.633 79.0395 159.895 79.154 160.132C79.2651 160.361 79.4142 160.56 79.5922 160.718C79.7702 160.875 79.9734 160.988 80.1892 161.048L89.9494 159.494C90.1774 159.558 90.4144 159.564 90.6445 159.511C90.8746 159.458 91.0926 159.347 91.2839 159.185L91.1197 159.542Z" fill="#2F2E41"/>
<path d="M83.3724 122.738C87.879 122.738 91.5322 118.377 91.5322 112.997C91.5322 107.617 87.879 103.256 83.3724 103.256C78.8659 103.256 75.2126 107.617 75.2126 112.997C75.2126 118.377 78.8659 122.738 83.3724 122.738Z" fill="#CB8E97"/>
<path d="M80.7733 121.938C81.2069 122.165 82.0947 118.041 81.697 117.216C81.1056 115.989 81.1405 115.998 80.7479 115.187C80.3553 114.375 80.2674 113.264 80.7759 112.55C81.2843 111.836 82.4609 111.931 82.6929 112.826C82.5437 111.125 83.9527 109.758 85.3484 109.374C86.7441 108.99 88.2163 109.229 89.6197 108.887C91.2484 108.49 92.943 106.86 92.2932 104.722C92.1817 104.366 92.0147 104.039 91.8012 103.757C91.0504 102.749 90.0001 102.319 88.9732 101.903C86.837 101.037 84.6423 100.161 82.3878 100.256C78.6835 100.413 75.182 103.47 73.9339 107.637C73.7786 108.157 73.6582 108.69 73.574 109.233C72.8002 114.2 75.2164 119.1 79.1408 120.991L80.7733 121.938Z" fill="#2F2E41"/>
<path d="M123.565 137.603L124.501 144.236C124.511 144.309 124.504 144.385 124.481 144.455L117.14 166.353C117.111 166.439 117.058 166.511 116.989 166.557C116.921 166.603 116.842 166.619 116.765 166.603C116.687 166.588 116.617 166.541 116.565 166.471C116.514 166.401 116.484 166.311 116.48 166.218L116.169 157.418C116.167 157.36 116.176 157.302 116.194 157.248L122.911 137.517C122.939 137.435 122.988 137.365 123.052 137.32C123.116 137.274 123.191 137.255 123.265 137.265C123.339 137.274 123.408 137.313 123.462 137.374C123.516 137.435 123.552 137.515 123.565 137.603V137.603Z" fill="#3F3D56"/>
<path d="M123.045 138.112L123.934 143.81L117.42 163.792L116.574 157.364L123.045 138.112Z" fill="#6C63FF"/>
<path d="M94.5425 166.251C94.7028 166.998 115.747 167.806 115.965 167.58C116.161 167.291 116.331 166.977 116.471 166.645C116.692 166.175 116.896 165.704 116.896 165.704L116.55 157.758L95.8202 155.114C95.8202 155.114 94.903 161.744 94.6151 164.79C94.5501 165.273 94.5257 165.762 94.5425 166.251Z" fill="#3F3D56"/>
<path opacity="0.1" d="M113.838 158.599L113.84 165.444L104.671 164.666L105.077 157.855L113.838 158.599Z" fill="black"/>
<path opacity="0.1" d="M101.89 159.785L101.946 159.777L101.513 162.687L96.4188 162.254L96.5927 159.335L101.89 159.785Z" fill="black"/>
<path opacity="0.1" d="M94.5425 166.251C94.7028 166.998 115.747 167.806 115.965 167.58C116.161 167.291 116.331 166.977 116.471 166.645L94.6151 164.79C94.5501 165.273 94.5257 165.762 94.5425 166.251Z" fill="black"/>
<path d="M86.0925 154.386L103.844 158.341C103.889 158.474 103.939 158.604 103.994 158.73C104.236 159.272 104.57 159.747 104.975 160.125C105.38 160.502 105.847 160.774 106.345 160.922C106.846 161.072 107.368 161.093 107.876 160.983C108.384 160.873 108.867 160.635 109.291 160.284C110.061 159.654 110.599 158.696 110.796 157.607C110.992 156.518 110.833 155.38 110.349 154.428C109.866 153.475 109.095 152.778 108.196 152.482C107.296 152.185 106.336 152.31 105.511 152.832C105.368 152.924 105.23 153.028 105.098 153.143L89.6794 146.855L88.8903 142.109L82.4946 142.615L83.1573 150.57C83.2377 151.498 83.5667 152.371 84.0955 153.058C84.6242 153.746 85.3245 154.211 86.0925 154.386V154.386Z" fill="#CB8E97"/>
<path d="M82.2779 146.163L91.5712 142.516L89.4034 135.086C89.1155 134.099 88.5448 133.266 87.792 132.733C87.0392 132.2 86.1528 132.002 85.2895 132.173V132.173C84.4162 132.347 83.6237 132.888 83.0552 133.698C82.4866 134.508 82.1795 135.535 82.1893 136.592L82.2779 146.163Z" fill="#2F2E41"/>
<path d="M141.231 215.533H63.2791C63.2248 215.533 63.1728 215.508 63.1344 215.462C63.096 215.416 63.0745 215.354 63.0745 215.289C63.0745 215.224 63.096 215.162 63.1344 215.116C63.1728 215.071 63.2248 215.045 63.2791 215.045H141.231C141.285 215.045 141.337 215.071 141.376 215.116C141.414 215.162 141.436 215.224 141.436 215.289C141.436 215.354 141.414 215.416 141.376 215.462C141.337 215.508 141.285 215.533 141.231 215.533Z" fill="#CBCBCB"/>
<path d="M171.554 207.838C175.292 210.148 176.955 215.177 176.955 215.177C176.955 215.177 172.555 216.462 168.817 214.152C165.078 211.842 163.416 206.812 163.416 206.812C163.416 206.812 167.815 205.528 171.554 207.838Z" fill="#F1F1F1"/>
<path d="M170.358 209.502C172.589 213.764 176.923 215.335 176.923 215.335C176.923 215.335 177.639 209.996 175.408 205.734C173.177 201.472 168.843 199.901 168.843 199.901C168.843 199.901 168.127 205.24 170.358 209.502Z" fill="#F1F1F1"/>
<path d="M183.787 215.436H160.463C160.409 215.436 160.357 215.411 160.318 215.365C160.28 215.319 160.259 215.257 160.259 215.192C160.259 215.127 160.28 215.065 160.318 215.02C160.357 214.974 160.409 214.948 160.463 214.948H183.787C183.842 214.948 183.894 214.974 183.932 215.02C183.97 215.065 183.992 215.127 183.992 215.192C183.992 215.257 183.97 215.319 183.932 215.365C183.894 215.411 183.842 215.436 183.787 215.436Z" fill="#CBCBCB"/>
</g>
<defs>
<clipPath id="clip0_78_212">
<rect width="158.178" height="149.187" fill="white" transform="translate(63.0745 66.3466)"/>
</clipPath>
</defs>
</svg>
