<svg width="500" height="500" viewBox="0 0 870 633" fill="none" xmlns="http://www.w3.org/2000/svg">
<g opacity="0.22">
<path d="M737.655 404.197C639.053 462.661 533.629 502.224 421.384 522.884C309.139 543.545 230.382 514.312 185.111 435.187C139.841 356.062 135.19 271.223 171.158 180.669C207.126 90.1146 297.046 46.8156 440.919 50.7719C584.791 54.7281 694.866 100.005 771.143 186.603C847.42 273.201 836.257 345.732 737.655 404.197Z" fill="#474BFF"/>
</g>
<g clip-path="url(#clip0_34_2)">
<path d="M686 152.638H401.74V267.539H686V152.638Z" fill="#E6E6E6"/>
<path d="M677.872 162.491H409.868V258.357H677.872V162.491Z" fill="white"/>
<path d="M685.879 146H401.618V156.287H685.879V146Z" fill="#6C63FF"/>
<path d="M410.593 153.956C411.829 153.956 412.831 153.102 412.831 152.049C412.831 150.996 411.829 150.142 410.593 150.142C409.356 150.142 408.354 150.996 408.354 152.049C408.354 153.102 409.356 153.956 410.593 153.956Z" fill="white"/>
<path d="M419.088 153.956C420.324 153.956 421.327 153.102 421.327 152.049C421.327 150.996 420.324 150.142 419.088 150.142C417.852 150.142 416.85 150.996 416.85 152.049C416.85 153.102 417.852 153.956 419.088 153.956Z" fill="white"/>
<path d="M427.584 153.956C428.821 153.956 429.823 153.102 429.823 152.049C429.823 150.996 428.821 150.142 427.584 150.142C426.348 150.142 425.346 150.996 425.346 152.049C425.346 153.102 426.348 153.956 427.584 153.956Z" fill="white"/>
<path d="M614.778 178.004H570.22V242.845H614.778V178.004Z" fill="#F2F2F2"/>
<path d="M562.837 178.003H472.962V195.851H562.837V178.003Z" fill="#6C63FF"/>
<path d="M562.837 200.822H472.962V220.025H562.837V200.822Z" fill="#F2F2F2"/>
<path d="M562.837 224.996H472.962V242.844H562.837V224.996Z" fill="#F2F2F2"/>
<path d="M347.621 337.723C347.629 336.409 347.312 335.108 346.689 333.905C346.066 332.702 345.152 331.625 344.006 330.745C342.861 329.864 341.51 329.199 340.042 328.794C338.574 328.389 337.022 328.253 335.487 328.395C335.002 328.441 334.521 328.517 334.048 328.621L296.977 301.553L299.192 291.382L280.921 286.338L275.412 302.638C274.76 304.594 274.866 306.677 275.715 308.578C276.563 310.479 278.108 312.096 280.121 313.19L325.724 337.759C325.724 338.065 325.743 338.37 325.78 338.674C325.947 339.981 326.436 341.244 327.215 342.378C327.994 343.513 329.046 344.495 330.301 345.259C331.557 346.024 332.988 346.553 334.501 346.814C336.013 347.074 337.574 347.059 339.079 346.77C339.517 346.688 339.948 346.582 340.37 346.453C342.48 345.803 344.307 344.618 345.603 343.057C346.899 341.497 347.603 339.635 347.621 337.723V337.723Z" fill="#CB8E97"/>
<path d="M255.458 369.115H303.254C303.254 370.286 352.515 371.236 352.515 371.236C353.288 371.732 353.992 372.301 354.615 372.932C356.486 374.833 357.509 377.235 357.503 379.716V381.412C357.501 384.223 356.19 386.919 353.856 388.907C351.523 390.895 348.358 392.012 345.058 392.013H255.458C252.158 392.01 248.995 390.893 246.662 388.905C244.328 386.918 243.016 384.223 243.014 381.412V379.716C243.018 376.906 244.331 374.212 246.663 372.225C248.996 370.237 252.159 369.119 255.458 369.115V369.115Z" fill="#3F3D56"/>
<path d="M307.45 391.592H294.507V462.828H307.45V391.592Z" fill="#3F3D56"/>
<path d="M344.285 463.714C344.285 465.048 324.673 464.23 300.481 464.23C276.288 464.23 256.676 465.048 256.676 463.714C256.676 462.38 276.288 451.803 300.481 451.803C324.673 451.803 344.285 462.38 344.285 463.714Z" fill="#3F3D56"/>
<path d="M332.602 454.091L344.807 454.09L350.613 427.125L332.6 427.126L332.602 454.091Z" fill="#CB8E97"/>
<path d="M329.489 464.169L368.844 464.168V463.744C368.844 462.03 368.447 460.333 367.678 458.75C366.908 457.167 365.78 455.729 364.357 454.517C362.935 453.306 361.246 452.344 359.388 451.689C357.53 451.033 355.538 450.695 353.526 450.695H353.525L329.488 450.696L329.489 464.169Z" fill="#2F2E41"/>
<path d="M350.857 437.369L375.189 390.89C377.221 386.972 377.445 382.547 375.818 378.494C374.191 374.442 370.832 371.061 366.41 369.023L313.632 344.915L289.548 343.17L267.332 341.45L267.172 341.681C266.967 341.976 262.191 349.004 265.42 356.71C267.869 362.555 274.239 367.121 284.354 370.281C307.963 377.655 335.236 383.957 345.866 386.324C346.336 386.426 346.775 386.612 347.154 386.869C347.533 387.127 347.845 387.449 348.067 387.816C348.29 388.179 348.423 388.577 348.456 388.986C348.49 389.394 348.424 389.804 348.262 390.19L325.657 433.453C325.421 434.002 325.336 434.589 325.408 435.17C325.481 435.751 325.709 436.31 326.076 436.804C326.442 437.299 326.937 437.714 327.522 438.02C328.107 438.325 328.766 438.512 329.449 438.566L346.34 439.614C346.484 439.625 346.627 439.631 346.769 439.631C347.634 439.631 348.48 439.417 349.206 439.016C349.931 438.614 350.505 438.042 350.857 437.369V437.369Z" fill="#CBCBCB"/>
<path d="M324.637 454.091L336.842 454.09L342.649 427.125L324.635 427.126L324.637 454.091Z" fill="#CB8E97"/>
<path d="M321.524 464.169L360.879 464.168V463.744C360.879 462.03 360.483 460.333 359.713 458.75C358.944 457.167 357.815 455.729 356.393 454.517C354.971 453.306 353.282 452.344 351.423 451.689C349.565 451.033 347.573 450.695 345.562 450.695H345.56L321.524 450.696L321.524 464.169Z" fill="#2F2E41"/>
<path d="M341.897 439.913L366.229 393.434C368.261 389.516 368.485 385.091 366.858 381.038C365.231 376.986 361.872 373.605 357.45 371.568L304.672 347.459L280.588 345.715L263.188 344.429L263.19 344.225C262.985 344.52 258.209 351.548 261.437 359.254C263.887 365.1 265.279 369.665 275.394 372.825C299.003 380.199 326.276 386.501 336.906 388.868C337.376 388.97 337.815 389.156 338.194 389.414C338.573 389.671 338.885 389.993 339.107 390.36C339.33 390.723 339.463 391.121 339.496 391.53C339.53 391.938 339.464 392.348 339.303 392.734L316.697 435.997C316.461 436.546 316.376 437.133 316.449 437.714C316.521 438.295 316.749 438.854 317.116 439.349C317.482 439.843 317.977 440.258 318.562 440.564C319.147 440.869 319.806 441.056 320.489 441.11L337.381 442.158C337.524 442.169 337.667 442.175 337.809 442.175C338.674 442.175 339.52 441.961 340.246 441.56C340.971 441.158 341.545 440.586 341.897 439.913Z" fill="#CBCBCB"/>
<path d="M296.041 345.277C297.208 344.574 313.961 352.061 316.948 346.125C303.01 316.443 312.615 303.626 304.077 286.605C302.573 283.669 300.308 281.062 297.451 278.979C294.595 276.897 291.221 275.393 287.584 274.58L265.433 273.628L265.318 273.675C260.32 275.76 256.243 279.162 253.694 283.377C251.144 287.591 250.256 292.393 251.162 297.071C251.241 315.595 264.252 329.723 259.703 343.159C259.512 343.721 259.456 344.31 259.539 344.89C259.622 345.471 259.841 346.031 260.184 346.537C260.517 347.027 260.964 347.453 261.497 347.79C262.031 348.127 262.64 348.367 263.286 348.496L292.534 345.172C293.217 345.311 293.927 345.323 294.617 345.21C295.307 345.096 295.96 344.859 296.533 344.513L296.041 345.277Z" fill="#2F2E41"/>
<path d="M272.825 266.58C286.33 266.58 297.277 257.255 297.277 245.751C297.277 234.248 286.33 224.922 272.825 224.922C259.321 224.922 248.374 234.248 248.374 245.751C248.374 257.255 259.321 266.58 272.825 266.58Z" fill="#CB8E97"/>
<path d="M265.037 264.87C266.336 265.354 268.996 256.535 267.805 254.772C266.032 252.149 266.137 252.168 264.961 250.432C263.784 248.697 263.521 246.322 265.044 244.795C266.568 243.268 270.094 243.47 270.789 245.385C270.342 241.749 274.564 238.826 278.747 238.004C282.929 237.183 287.341 237.693 291.546 236.962C296.427 236.113 301.505 232.629 299.558 228.057C299.223 227.296 298.723 226.595 298.083 225.992C295.833 223.838 292.686 222.918 289.609 222.028C283.207 220.177 276.631 218.303 269.875 218.507C258.774 218.843 248.282 225.38 244.542 234.289C244.076 235.4 243.715 236.542 243.463 237.702C241.144 248.324 248.385 258.8 260.145 262.845L265.037 264.87Z" fill="#2F2E41"/>
<path d="M393.267 298.364L396.071 312.547C396.102 312.705 396.082 312.867 396.012 313.016L374.014 359.839C373.926 360.024 373.767 360.179 373.563 360.276C373.358 360.374 373.12 360.409 372.889 360.375C372.658 360.341 372.448 360.241 372.293 360.091C372.138 359.941 372.048 359.751 372.038 359.551L371.106 340.735C371.1 340.61 371.125 340.486 371.181 340.37L391.307 298.18C391.391 298.004 391.54 297.857 391.732 297.759C391.923 297.662 392.147 297.621 392.369 297.641C392.59 297.662 392.798 297.744 392.96 297.874C393.122 298.005 393.23 298.177 393.267 298.364V298.364Z" fill="#3F3D56"/>
<path d="M391.71 299.453L394.374 311.637L374.852 354.364L372.318 340.62L391.71 299.453Z" fill="#6C63FF"/>
<path d="M306.298 359.621C306.778 361.218 369.84 362.947 370.494 362.464C371.081 361.845 371.589 361.175 372.011 360.465C372.672 359.459 373.284 358.451 373.284 358.451L372.247 341.462L310.127 335.807C310.127 335.807 307.379 349.984 306.516 356.498C306.321 357.53 306.248 358.576 306.298 359.621Z" fill="#3F3D56"/>
<path opacity="0.1" d="M364.12 343.26L364.125 357.896L336.65 356.232L337.865 341.669L364.12 343.26Z" fill="black"/>
<path opacity="0.1" d="M328.316 345.795L328.483 345.777L327.185 352L311.921 351.075L312.442 344.834L328.316 345.795Z" fill="black"/>
<path opacity="0.1" d="M306.298 359.621C306.778 361.218 369.84 362.947 370.494 362.464C371.081 361.845 371.589 361.175 372.011 360.465L306.516 356.498C306.321 357.53 306.248 358.576 306.298 359.621Z" fill="black"/>
<path d="M280.976 334.251L334.172 342.708C334.305 342.991 334.455 343.269 334.622 343.54C335.344 344.698 336.345 345.714 337.559 346.521C338.773 347.329 340.173 347.909 341.667 348.226C343.168 348.547 344.731 348.592 346.254 348.357C347.776 348.122 349.222 347.613 350.495 346.863C352.8 345.515 354.413 343.467 355.002 341.138C355.592 338.81 355.113 336.377 353.665 334.34C352.216 332.302 349.908 330.814 347.212 330.179C344.517 329.545 341.639 329.813 339.168 330.928C338.737 331.125 338.324 331.347 337.929 331.593L291.725 318.147L289.36 308L270.195 309.081L272.181 326.091C272.422 328.076 273.408 329.942 274.992 331.412C276.576 332.882 278.675 333.878 280.976 334.251V334.251Z" fill="#CB8E97"/>
<path d="M269.546 316.668L297.394 308.871L290.898 292.982C290.035 290.872 288.325 289.09 286.069 287.951C283.813 286.811 281.157 286.388 278.57 286.755V286.755C275.953 287.126 273.578 288.283 271.875 290.015C270.171 291.748 269.251 293.942 269.28 296.202L269.546 316.668Z" fill="#2F2E41"/>
<path d="M446.206 465H212.613C212.45 465 212.295 464.945 212.18 464.847C212.065 464.749 212 464.616 212 464.478C212 464.339 212.065 464.206 212.18 464.108C212.295 464.01 212.45 463.955 212.613 463.955H446.206C446.369 463.955 446.525 464.01 446.64 464.108C446.755 464.206 446.819 464.339 446.819 464.478C446.819 464.616 446.755 464.749 446.64 464.847C446.525 464.945 446.369 465 446.206 465Z" fill="#CBCBCB"/>
<path d="M537.072 448.545C548.276 453.485 553.257 464.239 553.257 464.239C553.257 464.239 540.074 466.985 528.87 462.046C517.667 457.106 512.685 446.352 512.685 446.352C512.685 446.352 525.869 443.606 537.072 448.545Z" fill="#F1F1F1"/>
<path d="M533.49 452.103C540.175 461.216 553.162 464.575 553.162 464.575C553.162 464.575 555.308 453.16 548.623 444.047C541.937 434.934 528.951 431.575 528.951 431.575C528.951 431.575 526.804 442.99 533.49 452.103Z" fill="#F1F1F1"/>
<path d="M573.732 464.793H503.838C503.675 464.793 503.519 464.738 503.404 464.64C503.289 464.542 503.225 464.409 503.225 464.271C503.225 464.132 503.289 463.999 503.404 463.901C503.519 463.803 503.675 463.748 503.838 463.748H573.732C573.895 463.748 574.05 463.803 574.165 463.901C574.28 463.999 574.345 464.132 574.345 464.271C574.345 464.409 574.28 464.542 574.165 464.64C574.05 464.738 573.895 464.793 573.732 464.793Z" fill="#CBCBCB"/>
</g>
<defs>
<clipPath id="clip0_34_2">
<rect width="474" height="319" fill="white" transform="translate(212 146)"/>
</clipPath>
</defs>
</svg>
