<svg width="270" height="225" viewBox="0 0 270 225" fill="none" xmlns="http://www.w3.org/2000/svg">
<g clip-path="url(#clip0_9_499)">
<path d="M155.593 10.9508C157.909 16.3916 153.002 17.9327 147.38 20.8488C141.759 23.765 137.552 26.952 135.236 21.5112C132.92 16.0705 131.041 5.27155 138.993 1.14612C147.22 -3.12144 153.277 5.51005 155.593 10.9508Z" fill="#2F2E41"/>
<path d="M144.124 21.6505C148.303 21.6505 151.692 17.9101 151.692 13.2961C151.692 8.68206 148.303 4.94165 144.124 4.94165C139.944 4.94165 136.556 8.68206 136.556 13.2961C136.556 17.9101 139.944 21.6505 144.124 21.6505Z" fill="#FFB8B8"/>
<path d="M181.616 50.3463C181.354 49.9688 181.092 49.598 180.827 49.2375C180.485 48.7681 180.141 48.3134 179.795 47.8735C175.873 42.8767 171.701 39.7303 167.107 39.3935H167.1L167.033 39.3867L157.878 49.2375L154.766 52.5845L154.834 52.7682L156.513 57.3841H185.936C184.61 54.9552 183.168 52.6059 181.616 50.3463Z" fill="#2F2E41"/>
<path d="M135.894 16.6598L138.603 15.2544L138.226 10.9402L140.037 14.5105L141.332 13.8388L141.112 11.3222L142.169 13.4048L151.79 8.41395C150.886 6.29111 149.256 4.65147 147.257 3.85576C145.258 3.06005 143.055 3.17343 141.132 4.17097L139.738 4.89429C137.815 5.89184 136.329 7.69182 135.609 9.89827C134.888 12.1047 134.991 14.5369 135.894 16.6598Z" fill="#2F2E41"/>
<path d="M198.594 168.306H40.5761C39.2282 168.305 37.9359 167.713 36.9828 166.661C36.0297 165.608 35.4936 164.182 35.4921 162.694V57.8753C35.4932 56.7852 35.8859 55.74 36.5842 54.9692C37.2824 54.1983 38.2291 53.7647 39.2166 53.7634H199.889C200.893 53.7647 201.856 54.2058 202.567 54.99C203.277 55.7742 203.677 56.8374 203.678 57.9464V162.694C203.676 164.182 203.14 165.608 202.187 166.661C201.234 167.713 199.942 168.305 198.594 168.306Z" fill="#F2F2F2"/>
<path d="M45.506 162.694H193.664C194.971 162.694 196.225 162.12 197.15 161.1C198.074 160.079 198.594 158.695 198.594 157.251V68.2859C198.594 66.8425 198.074 65.4582 197.15 64.4375C196.225 63.4169 194.971 62.8435 193.664 62.8435H45.506C44.1985 62.8435 42.9446 63.4169 42.02 64.4375C41.0955 65.4582 40.576 66.8425 40.576 68.2859V157.251C40.576 158.695 41.0955 160.079 42.02 161.1C42.9446 162.12 44.1985 162.694 45.506 162.694Z" fill="white"/>
<path d="M203.607 57.5542H35.4207V54.6968C35.4226 53.2038 35.9609 51.7727 36.9175 50.7174C37.8741 49.662 39.1708 49.0686 40.5232 49.0674H198.504C199.857 49.0686 201.154 49.662 202.11 50.7173C203.067 51.7727 203.605 53.2038 203.607 54.6968V57.5542Z" fill="#6C63FF"/>
<path d="M44.6937 54.7763C45.4226 54.7763 46.0135 54.124 46.0135 53.3193C46.0135 52.5146 45.4226 51.8623 44.6937 51.8623C43.9648 51.8623 43.3739 52.5146 43.3739 53.3193C43.3739 54.124 43.9648 54.7763 44.6937 54.7763Z" fill="white"/>
<path d="M49.7035 54.7763C50.4324 54.7763 51.0233 54.124 51.0233 53.3193C51.0233 52.5146 50.4324 51.8623 49.7035 51.8623C48.9746 51.8623 48.3837 52.5146 48.3837 53.3193C48.3837 54.124 48.9746 54.7763 49.7035 54.7763Z" fill="white"/>
<path d="M54.7131 54.7763C55.4421 54.7763 56.033 54.124 56.033 53.3193C56.033 52.5146 55.4421 51.8623 54.7131 51.8623C53.9842 51.8623 53.3933 52.5146 53.3933 53.3193C53.3933 54.124 53.9842 54.7763 54.7131 54.7763Z" fill="white"/>
<path d="M124.208 143.4H110.958C110.182 143.399 109.438 143.058 108.89 142.453C108.341 141.847 108.032 141.025 108.031 140.169V125.542C108.032 124.685 108.341 123.864 108.89 123.258C109.438 122.653 110.182 122.312 110.958 122.311H124.208C124.984 122.312 125.728 122.653 126.277 123.258C126.825 123.864 127.134 124.685 127.135 125.542V140.169C127.134 141.025 126.825 141.847 126.277 142.453C125.728 143.058 124.984 143.399 124.208 143.4ZM110.958 122.991C110.346 122.992 109.758 123.261 109.325 123.739C108.892 124.217 108.648 124.866 108.647 125.542V140.169C108.648 140.845 108.892 141.493 109.325 141.972C109.758 142.45 110.346 142.719 110.958 142.72H124.208C124.82 142.719 125.408 142.45 125.841 141.972C126.274 141.493 126.518 140.845 126.519 140.169V125.542C126.518 124.866 126.274 124.217 125.841 123.739C125.408 123.261 124.82 122.992 124.208 122.991H110.958Z" fill="#CCCCCC"/>
<path d="M121.589 139.318H113.578C113.332 139.318 113.098 139.21 112.924 139.019C112.751 138.828 112.653 138.568 112.653 138.298V127.413C112.653 127.142 112.751 126.883 112.924 126.692C113.098 126.5 113.332 126.393 113.578 126.393H119.382C119.593 126.393 119.797 126.472 119.962 126.618L122.168 128.575C122.276 128.67 122.363 128.791 122.423 128.929C122.483 129.067 122.513 129.217 122.513 129.37V138.298C122.513 138.568 122.415 138.828 122.242 139.019C122.069 139.21 121.834 139.318 121.589 139.318ZM113.578 127.073C113.496 127.073 113.418 127.109 113.36 127.173C113.302 127.236 113.27 127.323 113.269 127.413V138.298C113.27 138.388 113.302 138.474 113.36 138.538C113.418 138.602 113.496 138.638 113.578 138.638H121.589C121.67 138.638 121.749 138.602 121.807 138.538C121.864 138.474 121.897 138.388 121.897 138.298V129.37C121.897 129.319 121.887 129.269 121.867 129.223C121.847 129.177 121.818 129.137 121.782 129.105L119.575 127.148C119.521 127.099 119.453 127.073 119.382 127.073H113.578Z" fill="#CCCCCC"/>
<path d="M120.048 131.155H115.118C115.036 131.155 114.958 131.119 114.9 131.055C114.843 130.991 114.81 130.905 114.81 130.815C114.81 130.724 114.843 130.638 114.9 130.574C114.958 130.51 115.036 130.474 115.118 130.474H120.048C120.13 130.474 120.208 130.51 120.266 130.574C120.324 130.638 120.356 130.724 120.356 130.815C120.356 130.905 120.324 130.991 120.266 131.055C120.208 131.119 120.13 131.155 120.048 131.155Z" fill="#CCCCCC"/>
<path d="M120.048 133.196H115.118C115.036 133.196 114.958 133.16 114.9 133.096C114.843 133.032 114.81 132.946 114.81 132.856C114.81 132.765 114.843 132.679 114.9 132.615C114.958 132.551 115.036 132.515 115.118 132.515H120.048C120.13 132.515 120.208 132.551 120.266 132.615C120.324 132.679 120.356 132.765 120.356 132.856C120.356 132.946 120.324 133.032 120.266 133.096C120.208 133.16 120.13 133.196 120.048 133.196Z" fill="#CCCCCC"/>
<path d="M120.048 135.236H115.118C115.036 135.236 114.958 135.201 114.9 135.137C114.843 135.073 114.81 134.987 114.81 134.896C114.81 134.806 114.843 134.72 114.9 134.656C114.958 134.592 115.036 134.556 115.118 134.556H120.048C120.13 134.556 120.208 134.592 120.266 134.656C120.324 134.72 120.356 134.806 120.356 134.896C120.356 134.987 120.324 135.073 120.266 135.137C120.208 135.201 120.13 135.236 120.048 135.236Z" fill="#CCCCCC"/>
<path d="M155.636 143.4H142.387C141.611 143.399 140.867 143.058 140.318 142.453C139.77 141.847 139.461 141.025 139.46 140.169V125.542C139.461 124.685 139.77 123.864 140.318 123.258C140.867 122.653 141.611 122.312 142.387 122.311H155.636C156.413 122.312 157.157 122.653 157.705 123.258C158.254 123.864 158.563 124.685 158.564 125.542V140.169C158.563 141.025 158.254 141.847 157.705 142.453C157.157 143.058 156.413 143.399 155.636 143.4ZM142.387 122.991C141.774 122.992 141.187 123.261 140.754 123.739C140.321 124.217 140.077 124.866 140.076 125.542V140.169C140.077 140.845 140.321 141.493 140.754 141.972C141.187 142.45 141.774 142.719 142.387 142.72H155.636C156.249 142.719 156.837 142.45 157.27 141.972C157.703 141.493 157.947 140.845 157.947 140.169V125.542C157.947 124.866 157.703 124.217 157.27 123.739C156.837 123.261 156.249 122.992 155.636 122.991H142.387Z" fill="#CCCCCC"/>
<path d="M153.326 136.597H144.698C144.453 136.597 144.218 136.489 144.045 136.298C143.871 136.107 143.774 135.847 143.774 135.577V130.134C143.774 129.864 143.871 129.604 144.045 129.413C144.218 129.222 144.453 129.114 144.698 129.114H153.326C153.571 129.114 153.806 129.222 153.979 129.413C154.152 129.604 154.25 129.864 154.25 130.134V135.577C154.25 135.847 154.152 136.107 153.979 136.298C153.806 136.489 153.571 136.597 153.326 136.597ZM144.698 129.794C144.616 129.794 144.538 129.83 144.48 129.894C144.422 129.958 144.39 130.044 144.39 130.134V135.577C144.39 135.667 144.422 135.753 144.48 135.817C144.538 135.881 144.616 135.917 144.698 135.917H153.326C153.407 135.917 153.486 135.881 153.543 135.817C153.601 135.753 153.634 135.667 153.634 135.577V130.134C153.634 130.044 153.601 129.958 153.543 129.894C153.486 129.83 153.407 129.794 153.326 129.794H144.698Z" fill="#CCCCCC"/>
<path d="M149.012 133.753C148.838 133.753 148.669 133.7 148.522 133.599L143.918 130.423C143.849 130.375 143.8 130.299 143.782 130.211C143.763 130.123 143.778 130.031 143.821 129.954C143.864 129.878 143.933 129.824 144.013 129.803C144.092 129.783 144.176 129.798 144.245 129.846L148.849 133.022C148.898 133.055 148.954 133.073 149.012 133.073C149.069 133.073 149.126 133.055 149.175 133.022L153.778 129.846C153.847 129.798 153.931 129.783 154.011 129.803C154.09 129.824 154.159 129.878 154.202 129.954C154.246 130.031 154.26 130.123 154.241 130.211C154.223 130.299 154.174 130.375 154.105 130.423L149.502 133.599C149.355 133.7 149.185 133.753 149.012 133.753Z" fill="#CCCCCC"/>
<path d="M92.7792 143.4H79.5298C78.7538 143.399 78.0098 143.058 77.461 142.453C76.9122 141.847 76.6035 141.025 76.6027 140.169V125.542C76.6035 124.685 76.9122 123.864 77.461 123.258C78.0098 122.653 78.7538 122.312 79.5298 122.311H92.7792C93.5552 122.312 94.2992 122.653 94.848 123.258C95.3968 123.864 95.7054 124.685 95.7063 125.542V140.169C95.7054 141.025 95.3968 141.847 94.848 142.453C94.2992 143.058 93.5552 143.399 92.7792 143.4ZM79.5298 122.991C78.9171 122.992 78.3298 123.261 77.8965 123.739C77.4633 124.217 77.2196 124.866 77.2189 125.542V140.169C77.2196 140.845 77.4633 141.493 77.8965 141.972C78.3298 142.45 78.9171 142.719 79.5298 142.72H92.7792C93.3918 142.719 93.9792 142.45 94.4125 141.972C94.8457 141.493 95.0894 140.845 95.0901 140.169V125.542C95.0894 124.866 94.8457 124.217 94.4125 123.739C93.9792 123.261 93.3918 122.992 92.7792 122.991H79.5298Z" fill="#CCCCCC"/>
<path d="M90.4682 136.597H81.8408C81.5957 136.597 81.3607 136.489 81.1874 136.298C81.0141 136.107 80.9166 135.847 80.9164 135.577V130.134C80.9166 129.864 81.0141 129.604 81.1874 129.413C81.3607 129.222 81.5957 129.114 81.8408 129.114H90.4682C90.7133 129.114 90.9483 129.222 91.1215 129.413C91.2948 129.604 91.3923 129.864 91.3926 130.134V135.577C91.3923 135.847 91.2948 136.107 91.1215 136.298C90.9483 136.489 90.7133 136.597 90.4682 136.597ZM81.8408 129.794C81.7591 129.794 81.6807 129.83 81.623 129.894C81.5652 129.958 81.5327 130.044 81.5326 130.134V135.577C81.5327 135.667 81.5652 135.753 81.623 135.817C81.6807 135.881 81.7591 135.917 81.8408 135.917H90.4682C90.5499 135.917 90.6282 135.881 90.686 135.817C90.7438 135.753 90.7763 135.667 90.7763 135.577V130.134C90.7763 130.044 90.7438 129.958 90.686 129.894C90.6282 129.83 90.5499 129.794 90.4682 129.794H81.8408Z" fill="#CCCCCC"/>
<path d="M89.1008 136.597H82.9001C82.7919 136.597 82.6856 136.566 82.5919 136.506C82.4982 136.446 82.4204 136.361 82.3663 136.257C82.3123 136.154 82.2838 136.036 82.2838 135.917C82.2838 135.797 82.3123 135.68 82.3665 135.577L84.2342 132.005C84.2883 131.902 84.3661 131.816 84.4597 131.756C84.5534 131.696 84.6597 131.665 84.7679 131.665C84.8761 131.665 84.9823 131.696 85.076 131.756C85.1697 131.816 85.2475 131.902 85.3016 132.005L86.5079 134.312L87.2068 132.975C87.2609 132.872 87.3387 132.786 87.4323 132.726C87.526 132.667 87.6323 132.635 87.7405 132.635C87.8487 132.635 87.9549 132.667 88.0486 132.726C88.1423 132.786 88.2201 132.872 88.2742 132.975L89.6346 135.577C89.6887 135.68 89.7172 135.798 89.7171 135.917C89.7171 136.036 89.6886 136.154 89.6345 136.257C89.5804 136.361 89.5026 136.446 89.4089 136.506C89.3152 136.566 89.209 136.597 89.1008 136.597H89.1008ZM89.1008 135.917L87.7404 133.316L86.7748 135.162C86.7478 135.214 86.7089 135.257 86.662 135.287C86.6152 135.317 86.562 135.332 86.5079 135.332C86.4538 135.332 86.4007 135.317 86.3538 135.287C86.307 135.257 86.2681 135.214 86.241 135.162L84.768 132.345L82.9001 135.917H89.1008Z" fill="#CCCCCC"/>
<path d="M89.5439 131.835C89.8842 131.835 90.1601 131.53 90.1601 131.155C90.1601 130.779 89.8842 130.474 89.5439 130.474C89.2035 130.474 88.9276 130.779 88.9276 131.155C88.9276 131.53 89.2035 131.835 89.5439 131.835Z" fill="#CCCCCC"/>
<path d="M236.893 220.468L233.116 220.468L231.319 204.383L236.894 204.383L236.893 220.468Z" fill="#CB8E97"/>
<path d="M237.857 224.511L225.676 224.51V224.34C225.676 223.653 225.799 222.972 226.037 222.337C226.275 221.702 226.625 221.125 227.065 220.639C227.505 220.153 228.028 219.768 228.603 219.505C229.178 219.242 229.795 219.106 230.417 219.106H230.418L237.857 219.107L237.857 224.511Z" fill="#2F2E41"/>
<path d="M252.299 220.468L248.522 220.468L246.725 204.383L252.3 204.383L252.299 220.468Z" fill="#CB8E97"/>
<path d="M253.263 224.511L241.083 224.51V224.34C241.083 223.653 241.205 222.972 241.443 222.337C241.682 221.702 242.031 221.125 242.471 220.639C242.911 220.153 243.434 219.768 244.009 219.505C244.584 219.242 245.201 219.106 245.823 219.106H245.824L253.263 219.107L253.263 224.511Z" fill="#2F2E41"/>
<path d="M251.167 213.495L247.668 212.32C247.408 212.233 247.176 212.063 247.002 211.831C246.829 211.599 246.721 211.316 246.693 211.017L243.431 176.891C243.429 176.849 243.412 176.811 243.385 176.783C243.357 176.754 243.321 176.739 243.284 176.739C243.246 176.735 243.209 176.747 243.179 176.773C243.15 176.799 243.131 176.836 243.126 176.878L237.663 209.94C237.63 210.141 237.561 210.332 237.46 210.503C237.359 210.673 237.228 210.82 237.074 210.934C236.921 211.048 236.749 211.127 236.568 211.167C236.387 211.206 236.2 211.206 236.019 211.164L231.548 210.148C231.22 210.072 230.928 209.868 230.725 209.574C230.522 209.279 230.423 208.914 230.444 208.545L233.768 154.355L256.303 151.67L252.954 212.124C252.933 212.513 252.778 212.878 252.521 213.145C252.265 213.412 251.925 213.561 251.573 213.562C251.435 213.562 251.298 213.54 251.167 213.495Z" fill="#2F2E41"/>
<path d="M251.145 107.163C255.325 107.163 258.713 103.423 258.713 98.809C258.713 94.195 255.325 90.4546 251.145 90.4546C246.966 90.4546 243.578 94.195 243.578 98.809C243.578 103.423 246.966 107.163 251.145 107.163Z" fill="#CB8E97"/>
<path d="M233.733 154.673L238.619 120.709C238.879 118.903 239.484 117.179 240.395 115.651C241.305 114.124 242.5 112.828 243.899 111.849C245.298 110.871 246.87 110.233 248.51 109.978C250.15 109.722 251.821 109.856 253.411 110.368C256.19 111.256 258.571 113.255 260.086 115.977C261.602 118.698 262.144 121.945 261.607 125.084L256.495 155.416L233.733 154.673Z" fill="#6C63FF"/>
<path d="M253.235 160.75C253.613 160.475 253.931 160.111 254.168 159.685C254.405 159.258 254.555 158.78 254.606 158.283C254.657 157.786 254.609 157.283 254.465 156.809C254.321 156.335 254.085 155.901 253.773 155.539L258.825 144.739L253.136 145.409L249.21 155.562C248.694 156.181 248.401 156.988 248.387 157.83C248.373 158.672 248.639 159.49 249.135 160.13C249.631 160.769 250.323 161.185 251.078 161.3C251.834 161.414 252.601 161.219 253.235 160.75V160.75Z" fill="#CB8E97"/>
<path d="M254.317 153.634C254.037 153.59 253.776 153.454 253.569 153.242L251.636 151.271C251.427 151.057 251.283 150.777 251.223 150.469C251.163 150.162 251.189 149.842 251.3 149.551L255.163 139.443L254.615 119.469C254.693 118.827 254.886 118.209 255.182 117.649C255.477 117.089 255.87 116.599 256.337 116.207C256.804 115.814 257.336 115.528 257.904 115.363C258.472 115.198 259.063 115.158 259.645 115.245C260.226 115.333 260.786 115.546 261.293 115.873C261.8 116.2 262.244 116.633 262.599 117.15C262.953 117.666 263.213 118.254 263.362 118.881C263.51 119.507 263.546 120.16 263.466 120.802L264.403 133.358C264.688 137.169 263.709 140.964 261.649 144.038L255.625 153.028C255.509 153.201 255.361 153.345 255.192 153.451C255.022 153.557 254.834 153.622 254.64 153.642C254.532 153.653 254.424 153.651 254.317 153.634Z" fill="#6C63FF"/>
<path d="M207.565 94.2574C207.647 94.7491 207.826 95.2148 208.089 95.6218C208.352 96.0288 208.693 96.3672 209.088 96.6131C209.482 96.859 209.921 97.0064 210.372 97.045C210.824 97.0835 211.278 97.0123 211.702 96.8364L218.741 106.183L220.4 100.138L213.461 92.189C213.146 91.4222 212.587 90.8097 211.89 90.4674C211.194 90.1252 210.407 90.0769 209.681 90.3319C208.954 90.5869 208.337 91.1273 207.947 91.8508C207.557 92.5743 207.421 93.4305 207.565 94.2574Z" fill="#CB8E97"/>
<path d="M213.079 98.1317C213.224 97.8646 213.44 97.6527 213.697 97.5243L216.095 96.3281C216.355 96.1992 216.645 96.1616 216.925 96.2204C217.205 96.2791 217.461 96.4313 217.661 96.6564L224.587 104.525L241.461 111.755C241.966 112.086 242.407 112.523 242.759 113.041C243.111 113.56 243.367 114.15 243.512 114.778C243.657 115.406 243.689 116.059 243.605 116.701C243.522 117.342 243.324 117.959 243.024 118.516C242.725 119.073 242.328 119.56 241.858 119.947C241.388 120.335 240.853 120.617 240.284 120.777C239.715 120.936 239.123 120.97 238.542 120.877C237.961 120.784 237.403 120.565 236.898 120.234L226.06 116.291C222.77 115.095 219.986 112.62 218.225 109.327L213.074 99.6976C212.975 99.5123 212.912 99.3062 212.89 99.0926C212.868 98.8789 212.887 98.6626 212.946 98.4575C212.978 98.3435 213.023 98.2341 213.079 98.1317Z" fill="#6C63FF"/>
<path opacity="0.1" d="M257.284 127.778L256.976 138.663L251.3 149.551L256.039 137.417L257.284 127.778Z" fill="black"/>
<path d="M250.278 100.379C249.803 100.447 249.321 100.323 248.923 100.029C248.525 99.7346 248.236 99.2908 248.112 98.7798C247.992 98.1916 247.729 97.6506 247.352 97.2148C246.975 96.7789 246.497 96.4647 245.97 96.3057C244.582 95.9555 242.885 96.6769 241.868 95.5157C241.65 95.2507 241.493 94.9322 241.408 94.5867C241.324 94.2412 241.315 93.8785 241.383 93.5285C241.57 92.4001 242.301 91.5477 243.097 90.8659C244.771 89.4379 246.798 88.6019 248.91 88.4676C250.003 88.4327 251.098 88.4928 252.183 88.6474C253.319 88.7265 254.442 88.9532 255.53 89.3227C256.769 89.839 257.871 90.6919 258.733 91.8025C259.594 92.9131 260.189 94.2456 260.46 95.6768C260.709 97.1124 260.671 98.5907 260.349 100.008C260.026 101.426 259.427 102.749 258.594 103.885C257.596 105.256 256.31 106.337 254.847 107.034C254.499 107.216 254.099 107.238 253.736 107.096C252.825 106.696 252.974 105.45 253.389 104.619C253.834 103.73 254.518 102.869 254.16 101.786C253.981 101.284 253.637 100.875 253.197 100.641C252.291 100.131 251.278 100.252 250.304 100.376L250.278 100.379Z" fill="#2F2E41"/>
<path d="M205.036 105.097H111.366C110.018 105.095 108.726 104.504 107.773 103.451C106.82 102.399 106.284 100.973 106.282 99.4847V77.3749C106.284 75.8869 106.82 74.4603 107.773 73.4082C108.726 72.356 110.018 71.7641 111.366 71.7625H205.036C206.384 71.7642 207.676 72.356 208.629 73.4082C209.582 74.4604 210.118 75.8869 210.12 77.3749V99.4847C210.118 100.973 209.582 102.399 208.629 103.451C207.676 104.504 206.384 105.095 205.036 105.097Z" fill="white"/>
<path d="M205.036 105.267H111.366C109.977 105.265 108.646 104.656 107.664 103.572C106.682 102.488 106.129 101.018 106.128 99.4846V77.3748C106.129 75.8417 106.682 74.3719 107.664 73.2879C108.646 72.2038 109.977 71.594 111.366 71.5923H205.036C206.424 71.594 207.756 72.2038 208.738 73.2879C209.72 74.3719 210.272 75.8417 210.274 77.3748V99.4846C210.272 101.018 209.72 102.488 208.738 103.572C207.756 104.656 206.424 105.265 205.036 105.267ZM111.366 72.2726C110.141 72.2741 108.966 72.8122 108.099 73.7687C107.233 74.7252 106.746 76.0221 106.744 77.3748V99.4846C106.746 100.837 107.233 102.134 108.099 103.091C108.966 104.047 110.141 104.585 111.366 104.587H205.036C206.261 104.585 207.436 104.047 208.302 103.091C209.169 102.134 209.656 100.837 209.657 99.4846V77.3748C209.656 76.0221 209.169 74.7252 208.302 73.7687C207.436 72.8122 206.261 72.2741 205.036 72.2726H111.366Z" fill="#3F3D56"/>
<path d="M193.635 99.6548H122.767C121.419 99.6531 120.126 99.0613 119.173 98.0091C118.22 96.9569 117.684 95.5303 117.683 94.0423V82.4772C117.684 80.9892 118.22 79.5626 119.173 78.5105C120.126 77.4583 121.419 76.8664 122.767 76.8647H193.635C194.983 76.8664 196.275 77.4583 197.228 78.5105C198.181 79.5626 198.718 80.9892 198.719 82.4772V94.0423C198.718 95.5303 198.181 96.9569 197.228 98.0091C196.275 99.0613 194.983 99.6531 193.635 99.6548Z" fill="#F2F2F2"/>
<path d="M138.017 93.4212C141.375 93.4212 144.097 90.4162 144.097 86.7093C144.097 83.0024 141.375 79.9973 138.017 79.9973C134.659 79.9973 131.937 83.0024 131.937 86.7093C131.937 90.4162 134.659 93.4212 138.017 93.4212Z" fill="#EF6C00" fill-opacity="0.42"/>
<path d="M189.231 98.9774L180.649 91.0316L172.215 83.223C171.993 83.017 171.711 82.9043 171.421 82.9049C171.13 82.9056 170.849 83.0194 170.628 83.2264L162.221 91.0709L160.168 92.987L157.071 90.1205L147.662 81.4089C147.44 81.2029 147.158 81.0902 146.868 81.0908C146.577 81.0914 146.297 81.2053 146.075 81.4123L136.696 90.1638L127.17 99.0531C127.122 99.0981 127.087 99.1584 127.071 99.2259C127.055 99.2933 127.058 99.3646 127.079 99.4301C127.101 99.4956 127.141 99.5521 127.193 99.592C127.244 99.6319 127.306 99.6532 127.369 99.653L146.9 99.6115L153.082 99.5983L153.022 99.6548L171.45 99.6156L189.034 99.5782C189.097 99.5781 189.159 99.5565 189.21 99.5164C189.262 99.4763 189.301 99.4197 189.323 99.3541C189.344 99.2885 189.347 99.2172 189.331 99.1498C189.314 99.0824 189.28 99.0223 189.231 98.9774Z" fill="#3F3D56"/>
<path d="M269.692 225H210.532C210.451 225 210.372 224.964 210.314 224.9C210.257 224.837 210.224 224.75 210.224 224.66C210.224 224.57 210.257 224.483 210.314 224.419C210.372 224.356 210.451 224.32 210.532 224.32H269.692C269.774 224.32 269.852 224.356 269.91 224.419C269.968 224.483 270 224.57 270 224.66C270 224.75 269.968 224.837 269.91 224.9C269.852 224.964 269.774 225 269.692 225Z" fill="#CCCCCC"/>
<path d="M186.124 44.87C185.878 44.4285 185.553 44.047 185.169 43.7488C184.785 43.4505 184.35 43.2417 183.89 43.1352C183.722 43.0961 183.551 43.0722 183.379 43.0638L159.903 19.8928C159.442 19.3695 158.826 19.0451 158.168 18.9778C158.038 18.9613 157.907 18.9567 157.777 18.9641C157.235 18.9913 156.712 19.1921 156.272 19.542C155.832 19.8919 155.494 20.3758 155.3 20.9343C155.105 21.4929 155.062 22.1021 155.175 22.6873C155.289 23.2726 155.555 23.8085 155.94 24.2297L164.928 32.8797L179.687 47.0809C179.699 47.3484 179.736 47.6139 179.795 47.8735C179.972 48.6255 180.351 49.3005 180.883 49.809C181.416 50.3175 182.075 50.6354 182.775 50.7206C183.413 50.8028 184.059 50.6849 184.639 50.3804C185.099 50.1429 185.507 49.7983 185.834 49.3702C185.868 49.3259 185.899 49.2851 185.93 49.2375C186.361 48.6177 186.61 47.8676 186.645 47.0872C186.68 46.3068 186.498 45.5334 186.124 44.87H186.124Z" fill="#FFB8B8"/>
<path d="M145.969 67.2009L145.75 57.3841L145.566 49.2375L145.439 43.5366L145.19 32.4239C145.14 31.8289 144.935 31.2627 144.599 30.7943C144.263 30.3259 143.811 29.9757 143.297 29.7863C142.784 29.597 142.232 29.5767 141.708 29.7279C141.185 29.8792 140.712 30.1955 140.349 30.6381C140.263 30.7393 140.186 30.8485 140.118 30.9647C139.739 31.5645 139.568 32.2951 139.637 33.0226L140.186 49.2375L140.46 57.3841L140.811 67.7757C140.71 67.9284 140.618 68.0887 140.537 68.2553C140.318 68.714 140.185 69.2171 140.148 69.734C140.11 70.2509 140.168 70.7708 140.318 71.2623C140.475 71.7776 140.728 72.2505 141.063 72.6498C141.397 73.049 141.804 73.3656 142.257 73.5787C142.709 73.7918 143.198 73.8965 143.69 73.8859C144.183 73.8754 144.667 73.7498 145.113 73.5175C145.63 73.2476 146.078 72.8413 146.419 72.3345C146.76 71.8277 146.983 71.2359 147.068 70.6115C147.152 69.9871 147.097 69.3494 146.905 68.7545C146.713 68.1596 146.392 67.6261 145.969 67.2009H145.969Z" fill="#FFB8B8"/>
<path d="M167.107 39.3936L164.928 32.8797L161.403 22.3283C161.149 21.5606 160.741 20.8659 160.21 20.2959C159.68 19.7259 159.039 19.2952 158.337 19.0356C158.282 19.0152 158.223 18.9948 158.168 18.9778C157.488 18.7499 156.771 18.6872 156.067 18.7941C155.363 18.9009 154.688 19.1748 154.088 19.5969L142.216 27.9101C141.129 28.6697 140.352 29.8662 140.049 31.2467C139.746 32.6272 139.941 34.0836 140.593 35.3084C142.077 38.1424 143.695 40.8889 145.439 43.5366C146.823 45.6149 149.399 45.836 149.846 49.2375H158.599L167.461 40.4549L167.107 39.3936Z" fill="#CCCCCC"/>
<path d="M31.1712 119.003C35.1144 119.003 38.311 115.474 38.311 111.121C38.311 106.768 35.1144 103.239 31.1712 103.239C27.2281 103.239 24.0315 106.768 24.0315 111.121C24.0315 115.474 27.2281 119.003 31.1712 119.003Z" fill="#A0616A"/>
<path d="M48.6994 105.696C48.7698 105.757 48.838 105.823 48.904 105.892C49.232 106.233 49.491 106.647 49.664 107.106C49.8371 107.566 49.9202 108.06 49.9081 108.557C49.896 109.055 49.7888 109.543 49.5936 109.992C49.3984 110.44 49.1196 110.838 48.7755 111.159C48.6952 111.233 48.6115 111.303 48.5247 111.368L49.0079 129.377C49.0217 129.966 48.8629 130.545 48.5551 131.027C48.2473 131.509 47.807 131.869 47.2994 132.053L47.2699 132.06L34.0241 133.617C33.664 133.659 33.2999 133.622 32.9527 133.508C32.6056 133.394 32.2824 133.206 32.0017 132.953C31.721 132.7 31.4884 132.389 31.3174 132.037C31.1463 131.684 31.0402 131.298 31.0052 130.9C30.9701 130.502 31.0068 130.1 31.1132 129.718C31.2195 129.336 31.3934 128.981 31.6247 128.673C31.8561 128.366 32.1403 128.112 32.4611 127.926C32.7818 127.741 33.1327 127.627 33.4935 127.592L42.9357 126.674L44.5686 111.078C44.4618 110.973 44.3618 110.861 44.2693 110.741C43.7573 110.072 43.4888 109.217 43.5158 108.342C43.5429 107.466 43.8637 106.634 44.4158 106.005C44.9679 105.376 45.712 104.996 46.5036 104.939C47.2952 104.882 48.0778 105.151 48.6994 105.696H48.6994Z" fill="#A0616A"/>
<path d="M42.9303 220.816H46.4944L48.1897 205.641H42.9297L42.9303 220.816Z" fill="#A0616A"/>
<path d="M42.0214 219.532L49.0398 219.532H49.0401C49.6275 219.532 50.2091 219.659 50.7517 219.908C51.2944 220.156 51.7875 220.519 52.2028 220.978C52.6181 221.436 52.9476 221.981 53.1724 222.58C53.3972 223.179 53.5128 223.821 53.5128 224.469V224.63L42.0216 224.63L42.0214 219.532Z" fill="#2F2E41"/>
<path d="M7.50769 215.377L10.5698 217.39L19.0596 205.308L14.54 202.338L7.50769 215.377Z" fill="#A0616A"/>
<path d="M7.32192 213.76L13.3524 217.724L13.3526 217.724C13.8573 218.056 14.2979 218.494 14.6491 219.014C15.0004 219.533 15.2555 220.124 15.3999 220.753C15.5443 221.381 15.5751 222.035 15.4906 222.677C15.4061 223.318 15.2079 223.935 14.9074 224.493L14.833 224.63L4.95935 218.141L7.32192 213.76Z" fill="#2F2E41"/>
<path d="M47.3351 215.457H43.3444C43.0212 215.457 42.7094 215.326 42.4691 215.087C42.2289 214.849 42.0773 214.52 42.0436 214.165L38.0204 172.416C38.0103 172.311 37.9691 172.213 37.9032 172.136C37.8373 172.059 37.7504 172.009 37.6559 171.992C37.5614 171.975 37.4645 171.993 37.3802 172.043C37.2958 172.093 37.2288 172.173 37.1894 172.269L29.9314 190.011L17.0815 213.142C16.9152 213.438 16.6577 213.659 16.3562 213.763C16.0546 213.867 15.7292 213.848 15.4396 213.708L10.3061 211.215C10.1364 211.133 9.9845 211.011 9.86049 210.859C9.73647 210.707 9.64318 210.527 9.58681 210.332C9.53044 210.137 9.51227 209.931 9.53351 209.728C9.55475 209.524 9.6149 209.328 9.70999 209.152L21.5226 187.317L25.1454 168.92C24.0059 160.942 28.8906 149.081 28.9401 148.962L28.9643 148.904L42.4193 143.098L42.4868 143.189C47.7931 162.412 51.0265 183.1 48.639 214.134C48.6096 214.494 48.4597 214.829 48.2186 215.073C47.9775 215.318 47.6626 215.455 47.3351 215.457Z" fill="#2F2E41"/>
<path d="M28.4223 150.848L28.3596 150.702C28.3297 150.633 25.3378 143.667 23.0315 136.222C22.5883 134.782 22.4207 133.256 22.5395 131.741C22.6582 130.226 23.0606 128.755 23.7213 127.421C24.3905 126.073 25.3061 124.893 26.41 123.955C27.5139 123.018 28.7821 122.345 30.1341 121.977C32.4814 121.356 34.9527 121.686 37.0978 122.908C39.2428 124.13 40.9189 126.162 41.8206 128.633C43.65 133.684 43.0669 139.074 42.5183 143.313L42.5073 143.398L42.4374 143.435L28.4223 150.848Z" fill="#3F3D56"/>
<path d="M39.8279 106.669H28.4908V101.213C30.9792 100.122 33.4142 99.1937 34.8861 101.213C36.1967 101.213 37.4537 101.788 38.3805 102.811C39.3072 103.834 39.8279 105.222 39.8279 106.669V106.669Z" fill="#2F2E41"/>
<path d="M27.8633 100.25C21.0857 100.25 19.1887 109.629 19.1887 114.92C19.1887 117.87 20.3975 118.926 22.2969 119.283L22.9677 115.333L24.5389 119.453C25.0724 119.456 25.6329 119.444 26.214 119.432L26.7468 118.221L27.9347 119.411C32.6923 119.418 36.5377 120.184 36.5377 114.92C36.5377 109.629 34.874 100.25 27.8633 100.25Z" fill="#2F2E41"/>
<path d="M59.4679 225H0.308124C0.226404 225 0.148031 224.964 0.0902471 224.9C0.0324627 224.837 0 224.75 0 224.66C0 224.57 0.0324627 224.483 0.0902471 224.419C0.148031 224.356 0.226404 224.32 0.308124 224.32H59.4679C59.5496 224.32 59.628 224.356 59.6857 224.419C59.7435 224.483 59.776 224.57 59.776 224.66C59.776 224.75 59.7435 224.837 59.6857 224.9C59.628 224.964 59.5496 225 59.4679 225Z" fill="#CCCCCC"/>
<path d="M60.5803 113.091H47.331C46.5549 113.09 45.8109 112.749 45.2621 112.143C44.7134 111.537 44.4047 110.716 44.4038 109.859V95.2326C44.4047 94.3759 44.7134 93.5546 45.2621 92.9488C45.8109 92.343 46.5549 92.0022 47.331 92.0012H60.5803C61.3564 92.0022 62.1004 92.343 62.6491 92.9488C63.1979 93.5546 63.5066 94.3759 63.5075 95.2326V109.859C63.5066 110.716 63.1979 111.537 62.6491 112.143C62.1004 112.749 61.3564 113.09 60.5803 113.091Z" fill="white"/>
<path d="M60.5803 113.091H47.331C46.5549 113.09 45.8109 112.749 45.2621 112.143C44.7134 111.537 44.4047 110.716 44.4038 109.859V95.2326C44.4047 94.3759 44.7134 93.5546 45.2621 92.9488C45.8109 92.343 46.5549 92.0022 47.331 92.0012H60.5803C61.3564 92.0022 62.1004 92.343 62.6491 92.9488C63.1979 93.5546 63.5066 94.3759 63.5075 95.2326V109.859C63.5066 110.716 63.1979 111.537 62.6491 112.143C62.1004 112.749 61.3564 113.09 60.5803 113.091ZM47.331 92.6815C46.7183 92.6823 46.1309 92.9513 45.6977 93.4296C45.2644 93.9078 45.0207 94.5563 45.0201 95.2326V109.859C45.0207 110.535 45.2644 111.184 45.6977 111.662C46.1309 112.14 46.7183 112.409 47.331 112.41H60.5803C61.193 112.409 61.7804 112.14 62.2136 111.662C62.6469 111.184 62.8905 110.535 62.8912 109.859V95.2326C62.8905 94.5563 62.6469 93.9078 62.2136 93.4296C61.7804 92.9513 61.193 92.6823 60.5803 92.6815H47.331Z" fill="#3F3D56"/>
<path d="M58.2694 107.138H49.6419C49.3968 107.138 49.1619 107.03 48.9886 106.839C48.8153 106.647 48.7178 106.388 48.7175 106.117V98.9743C48.7178 98.7038 48.8153 98.4444 48.9886 98.2531C49.1619 98.0618 49.3968 97.9542 49.6419 97.9539H52.0706C52.2286 97.9532 52.3841 97.9976 52.522 98.0826C52.6599 98.1676 52.7756 98.2905 52.8579 98.4393L53.5353 99.6546H58.2694C58.5144 99.6549 58.7494 99.7625 58.9227 99.9538C59.096 100.145 59.1935 100.405 59.1937 100.675V106.117C59.1935 106.388 59.096 106.647 58.9227 106.839C58.7494 107.03 58.5144 107.138 58.2694 107.138Z" fill="#6C63FF"/>
<path d="M57.9886 110.747C58.0318 110.834 58.0716 110.924 58.1081 111.016C58.2905 111.471 58.3838 111.963 58.3818 112.46C58.3799 112.958 58.2827 113.449 58.0967 113.902C57.9108 114.355 57.6402 114.76 57.3027 115.089C56.9652 115.419 56.5684 115.666 56.1384 115.815C56.0383 115.849 55.9367 115.877 55.8339 115.9L49.9489 132.705C49.7544 133.254 49.4046 133.719 48.9515 134.032C48.4984 134.344 47.9661 134.487 47.4336 134.439L47.4041 134.433L34.6488 130.194C34.302 130.079 33.9793 129.889 33.6994 129.635C33.4195 129.381 33.1879 129.069 33.0179 128.716C32.848 128.363 32.7431 127.976 32.7093 127.578C32.6756 127.18 32.7136 126.778 32.8211 126.396C32.9287 126.015 33.1037 125.66 33.3361 125.354C33.5685 125.047 33.8536 124.794 34.1749 124.61C34.4963 124.425 34.8476 124.313 35.2085 124.279C35.5694 124.246 35.9327 124.291 36.2775 124.414L45.3026 127.612L52.2897 113.938C52.228 113.796 52.1753 113.649 52.1322 113.499C51.8955 112.663 51.9486 111.76 52.2812 110.965C52.6138 110.17 53.2022 109.54 53.9321 109.197C54.662 108.854 55.4813 108.823 56.2309 109.109C56.9805 109.395 57.607 109.979 57.9887 110.747H57.9886Z" fill="#A0616A"/>
</g>
<defs>
<clipPath id="clip0_9_499">
<rect width="270" height="225" fill="white"/>
</clipPath>
</defs>
</svg>
