<svg width="260" height="50" viewBox="0 0 260 50" fill="none" xmlns="http://www.w3.org/2000/svg">
<path d="M35.4009 8.1001H6.04407L8.63438 35.9801L20.7225 39.2601L32.8106 35.9801L35.4009 8.1001Z" fill="#E65100"/>
<path d="M20.7224 10.5601V36.7181L30.3929 34.0941L32.5515 10.5601H20.7224Z" fill="#FF6D00"/>
<path d="M20.7224 24.5002V21.2202H28.148L27.5436 30.6502L20.7224 32.7822V29.3382L24.2625 28.1902L24.5215 24.5002H20.7224V24.5002ZM28.407 17.9402L28.666 14.6602H20.7224V17.9402H28.407Z" fill="white"/>
<path d="M20.7225 29.3382V32.7822L13.9014 30.6502L13.556 26.1402H17.0097L17.1824 28.1902L20.7225 29.3382ZM16.4917 17.9402H20.7225V14.6602H12.8652L13.4696 24.5002H20.7225V21.2202H16.7507L16.4917 17.9402Z" fill="#EEEEEE"/>
<path d="M52.2307 10.1297L54.5935 35.5582C54.6915 36.6148 55.4659 37.5057 56.5398 37.797L66.1122 40.3945C66.9199 40.614 67.7753 40.614 68.5829 40.3945L78.1554 37.797C79.2293 37.5057 80.0037 36.6157 80.1017 35.5582L82.4645 10.1297C82.558 9.13029 81.7297 8.271 80.6737 8.271H54.0223C52.9664 8.271 52.1381 9.13029 52.2307 10.1297Z" fill="url(#paint0_linear_57_31)"/>
<path d="M67.3479 10.8335V38.0814L76.2305 35.671C76.9473 35.4762 77.4636 34.8817 77.5284 34.177L79.5844 11.762C79.6303 11.2623 79.2166 10.8335 78.6886 10.8335H67.3479Z" fill="#35C1F1"/>
<path d="M75.5326 15.104H67.3479V18.5207H71.755L71.4852 21.9373H67.3479V25.354H71.3053L71.0355 29.1978L67.3479 30.3936V33.9811L74.4533 31.7603L75.0828 21.9373L75.5326 15.104Z" fill="white"/>
<path d="M67.3481 15.104V18.5207H59.3433L59.0735 15.104H67.3481ZM63.2108 21.9373L63.3907 25.354H67.3481V21.9373H63.2108ZM63.5705 27.0623H59.9729L60.2427 31.7603L67.3481 33.9811V30.3936L63.6605 29.1978L63.5705 27.0623Z" fill="#D6E0E9"/>
<path opacity="0.05" d="M75.5326 15.1042L75.0829 21.9375L74.4533 31.7604L67.3479 33.9812L60.2426 31.7604L59.9727 27.0625H63.5704L63.6603 29.1979L67.3479 30.3938L71.0355 29.1979L71.3053 25.3542H67.3479H63.3905L63.2106 21.9375H67.3479H71.4852L71.755 18.5208H67.3479H59.3432L59.0733 15.1042H67.3479H75.5326ZM76.4896 14.25H75.5326H67.3479H59.0733H58.1038L58.1766 15.1682L58.4464 18.5849L58.5085 19.375H59.3432H67.3479H70.7855L70.6506 21.0833H67.3479H63.2106H62.2653L62.3121 21.9802L62.492 25.3969L62.5352 26.2083H59.9727H59.023L59.0751 27.1086L59.3449 31.8065L59.3782 32.3891L59.9619 32.5719L67.0673 34.7927L67.3479 34.8807L67.6294 34.7927L74.7348 32.5719L75.314 32.3908L75.3509 31.8125L75.9805 21.9896L76.4302 15.158L76.4896 14.25ZM64.4347 26.2083H67.3479H70.3439L70.1775 28.5735L67.3479 29.4909L64.5346 28.5786L64.4689 27.0283L64.4347 26.2083Z" fill="black"/>
<path opacity="0.07" d="M75.5327 15.1043L75.0829 21.9377L74.4534 31.7606L67.348 33.9814L60.2426 31.7606L59.9728 27.0627H63.5705L63.6604 29.1981L67.348 30.3939L71.0356 29.1981L71.3054 25.3543H67.348H63.3906L63.2107 21.9377H67.348H71.4853L71.7551 18.521H67.348H59.3432L59.0734 15.1043H67.348H75.5327ZM76.0111 14.6772H75.5327H67.348H59.0734H58.5886L58.6246 15.1359L58.8944 18.5526L58.9259 18.9481H59.3432H67.348H71.2703L71.068 21.5106H67.348H63.2107H62.7376L62.761 21.959L62.9409 25.3757L62.9625 25.7814H63.3906H67.348H70.8251L70.6075 28.8855L67.348 29.9429L64.0975 28.8889L64.0202 27.0456L64.0022 26.6356H63.5705H59.9728H59.4979L59.524 27.0857L59.7938 31.7836L59.8109 32.0749L60.1023 32.1663L67.2077 34.3871L67.348 34.4307L67.4883 34.3871L74.5937 32.1663L74.8833 32.0758L74.9022 31.7862L75.5318 21.9633L75.9815 15.1308L76.0111 14.6772Z" fill="black"/>
<path d="M102.101 39.875V9.125H134.48V39.875H102.101Z" fill="#FFD600"/>
<path d="M123.272 32.1421C123.894 33.1021 124.571 34.0221 126.003 34.0221C127.207 34.0221 127.838 33.4541 127.838 32.6682C127.838 31.7278 127.185 31.3938 125.861 30.8463L125.135 30.5525C123.041 29.7085 121.647 28.6511 121.647 26.4174C121.647 24.3589 123.307 22.7924 125.9 22.7924C127.746 22.7924 129.073 23.3997 130.03 24.9901L127.769 26.3628C127.271 25.5189 126.734 25.1866 125.9 25.1866C125.049 25.1866 124.51 25.6965 124.51 26.3628C124.51 27.1862 125.05 27.5193 126.296 28.0293L127.021 28.3231C129.49 29.3216 130.883 30.3415 130.883 32.6341C130.883 35.1043 128.828 36.4582 126.071 36.4582C123.373 36.4582 121.842 35.1726 120.989 33.5813L123.272 32.1421ZM112.851 32.2121C113.306 32.986 113.998 33.5813 114.993 33.5813C115.944 33.5813 116.492 33.2243 116.492 31.8363V22.7915H119.49V32.2736C119.49 35.1496 117.733 36.4582 115.168 36.4582C112.85 36.4582 111.177 34.9668 110.496 33.5813L112.851 32.2121Z" fill="#000001"/>
<path d="M178.616 6.46629C178.525 6.47911 178.434 6.50473 178.347 6.54317C177.605 6.89231 176.761 7.93012 176.6 8.13512C176.589 8.14793 176.579 8.16075 176.573 8.17356C175.739 9.35872 175.294 10.7457 175.277 12.1903C175.267 13.2729 175.49 14.346 175.942 15.3806C176.994 17.7797 179.18 19.7657 181.78 20.6946C181.868 20.7234 181.952 20.7522 182.104 20.8035C182.117 20.8099 182.246 20.8483 182.266 20.8515L182.36 20.8836C182.495 20.9252 182.633 20.9668 182.768 20.9925C183.453 21.1238 184.121 21.1975 184.748 21.2167C184.856 21.2167 184.964 21.2199 185.072 21.2199C189.804 21.2199 191.639 18.0488 192.249 16.9918C192.31 16.8893 192.354 16.806 192.394 16.7547C192.394 16.7515 192.394 16.7515 192.398 16.7483C192.664 16.3736 192.563 15.8643 192.168 15.608C191.777 15.355 191.241 15.4511 190.971 15.8258H190.968C189.706 17.5907 187.548 18.1257 184.556 17.421C184.333 17.3697 184.09 17.2897 183.875 17.2128C183.591 17.1167 183.308 17.0046 183.045 16.8829C182.522 16.6362 182.03 16.3415 181.584 16.0148C178.954 14.0769 177.925 10.0442 179.463 7.71551C179.669 7.40481 179.632 7.00122 179.372 6.72895C179.176 6.52395 178.893 6.43106 178.616 6.46629ZM170.967 8.09989C170.771 8.09668 170.572 8.15754 170.41 8.28567C169.105 9.29465 167.77 10.9475 167.712 11.0147C167.705 11.0275 167.699 11.0372 167.689 11.05C165.328 14.3139 165.149 18.9585 167.237 22.8823C167.564 23.5037 167.935 24.0963 168.329 24.6408L168.447 24.801C168.781 25.2654 169.156 25.7907 169.635 26.2007C169.8 26.3801 169.979 26.5531 170.154 26.7197L170.238 26.8029L170.309 26.8702C170.488 27.0336 170.67 27.2001 170.859 27.3603H170.862C170.876 27.3795 170.896 27.3923 170.913 27.4083C171.125 27.5877 171.341 27.7575 171.628 27.9721L171.706 28.0265C171.928 28.1963 172.154 28.3564 172.387 28.5134C172.41 28.5294 172.434 28.5454 172.458 28.5614C172.539 28.6127 172.62 28.6607 172.701 28.7152L172.781 28.7664L172.876 28.8241C173.048 28.933 173.217 29.0323 173.456 29.1636C173.611 29.2533 173.776 29.343 173.884 29.3943C173.932 29.4199 173.982 29.4455 174.1 29.5064L174.363 29.6377C174.377 29.6441 174.438 29.6697 174.451 29.6761C174.623 29.7594 174.802 29.8395 174.981 29.9164L175.254 30.0317C175.433 30.1054 175.615 30.1758 175.837 30.2559L175.938 30.2911C175.945 30.2975 176.03 30.3264 176.036 30.3296C176.198 30.384 176.363 30.4385 176.529 30.4897L176.906 30.6082C177.095 30.6691 177.315 30.7396 177.554 30.778C178.731 30.9638 179.874 31.0599 180.957 31.0599C181.085 31.0599 181.213 31.0567 181.338 31.0567C190.87 30.8581 193.349 23.1674 193.372 23.0905C193.49 22.7029 193.298 22.2897 192.914 22.1168C192.529 21.9438 192.071 22.0655 191.831 22.3986C189.416 25.7491 184.849 27.1649 180.198 25.9989C179.982 25.9477 179.773 25.89 179.514 25.81C179.47 25.7972 179.433 25.7843 179.362 25.7587C179.21 25.7139 179.062 25.6658 178.893 25.605L178.654 25.5185C178.515 25.4672 178.377 25.416 178.208 25.3455L178.097 25.2975C177.891 25.2142 177.692 25.1213 177.514 25.038L177.021 24.7946C176.91 24.7433 176.812 24.6857 176.66 24.5992L176.576 24.5543L176.492 24.5063C176.367 24.4358 176.242 24.3622 176.127 24.2853L176.046 24.2372C176.04 24.234 175.972 24.1892 175.965 24.1828C175.864 24.1219 175.766 24.0611 175.672 24.0034C175.463 23.8625 175.257 23.7151 175.018 23.5357L174.923 23.4621C172.697 21.774 171.051 19.519 170.279 17.1007C169.56 14.8809 170.093 11.9757 171.706 9.32989C171.915 8.98715 171.837 8.55153 171.517 8.29528C171.358 8.16715 171.163 8.09989 170.967 8.09989ZM161.466 10.5599C161.26 10.5599 161.051 10.6304 160.886 10.7713C159.236 12.1775 158.002 14 157.867 14.2082C154.339 19.0866 155.02 26.6684 157.442 31.3033C157.489 31.3994 157.54 31.4923 157.59 31.5852L157.624 31.6364C157.668 31.7293 157.719 31.8254 157.735 31.8447C157.762 31.9055 157.803 31.9728 157.82 31.992C157.86 32.0721 157.901 32.1425 157.975 32.2643L158.251 32.7159C158.292 32.7768 158.332 32.8408 158.346 32.8632C158.4 32.9465 158.457 33.033 158.515 33.1195L158.649 33.3245C158.69 33.3854 158.73 33.4398 158.757 33.4718C158.892 33.6704 159.027 33.869 159.176 34.058C159.182 34.0676 159.189 34.074 159.196 34.0804L159.25 34.1509C159.371 34.3175 159.496 34.4776 159.607 34.6089L160.1 35.2015C160.107 35.2079 160.16 35.2688 160.164 35.2752L160.235 35.3521C160.383 35.525 160.542 35.698 160.7 35.8646C160.724 35.8902 160.747 35.9126 160.771 35.9382C160.923 36.0952 161.078 36.2522 161.24 36.4155L161.395 36.5564C161.523 36.6846 161.651 36.8095 161.786 36.928C161.786 36.9312 161.85 36.9889 161.85 36.9889L161.985 37.1074C162.147 37.2547 162.316 37.4021 162.444 37.5046C162.451 37.5142 162.572 37.6135 162.582 37.6199C162.741 37.7544 162.899 37.8825 163.061 38.0075L163.887 38.6289C164.026 38.725 164.167 38.8211 164.329 38.9332C164.383 38.9716 164.441 39.01 164.498 39.0453C164.522 39.0645 164.548 39.0837 164.565 39.0933L165.186 39.4873C165.412 39.6282 165.638 39.7596 165.914 39.9165L166.063 39.9966C166.235 40.0927 166.41 40.1888 166.576 40.2721C166.673 40.3233 166.771 40.3682 166.855 40.4098C166.974 40.4707 167.102 40.5379 167.297 40.6276C167.314 40.6372 167.452 40.7013 167.469 40.7077C167.665 40.8006 167.864 40.8871 168.114 40.9928C168.114 40.996 168.194 41.0312 168.194 41.0312C168.424 41.1241 168.646 41.2138 168.94 41.3259C168.987 41.3451 169.034 41.3611 169.044 41.3643C169.254 41.4412 169.473 41.5181 169.652 41.5789C169.668 41.5854 169.759 41.6206 169.776 41.627C170.016 41.7039 170.252 41.7775 170.555 41.8672C170.606 41.8832 170.66 41.8993 170.667 41.8993L170.839 41.9505C171.048 42.0114 171.257 42.0754 171.483 42.1171C173.088 42.3957 174.657 42.5399 176.141 42.5399H176.144C188.512 42.5399 192.452 33.0875 192.492 32.9914C192.644 32.6102 192.479 32.181 192.101 31.9824C191.73 31.787 191.258 31.8799 190.995 32.2034C187.821 36.1721 181.834 37.6455 174.981 36.1497C174.815 36.1112 174.647 36.0664 174.481 36.0183L174.158 35.9254C173.938 35.8614 173.719 35.7909 173.507 35.7204C173.503 35.7204 173.405 35.6852 173.405 35.6852C173.217 35.6243 173.028 35.5539 172.862 35.493L172.674 35.4225C172.464 35.3425 172.255 35.2592 172.053 35.1727L171.935 35.1247C171.753 35.0446 171.577 34.9677 171.402 34.8844C171.389 34.878 171.25 34.8139 171.237 34.8107C171.115 34.7531 170.994 34.6922 170.839 34.6122L170.134 34.2534C170.063 34.2086 169.989 34.1669 169.918 34.1317C169.706 34.0068 169.486 33.8818 169.27 33.7505C169.22 33.7217 169.176 33.6897 169.092 33.6352C168.943 33.5455 168.798 33.4526 168.586 33.3117L168.501 33.254C168.356 33.1579 168.215 33.0554 168.097 32.9722C168.022 32.9209 167.948 32.8632 167.827 32.7768C167.719 32.6967 167.611 32.6198 167.51 32.5429L167.321 32.3956C167.162 32.2739 167.014 32.1457 166.859 32.0208C166.839 32.0016 166.822 31.9888 166.798 31.9728C166.626 31.8222 166.451 31.6717 166.242 31.4827L165.631 30.9061C165.483 30.762 165.334 30.6146 165.166 30.4385C165.011 30.2751 164.862 30.1118 164.663 29.8875L164.299 29.4647C164.255 29.4039 164.208 29.343 164.151 29.2789C164.026 29.1188 163.901 28.9618 163.776 28.7953C160.417 24.4006 159.54 15.2268 162.157 11.8668C162.42 11.5304 162.373 11.0564 162.043 10.7713C161.881 10.6304 161.672 10.5599 161.466 10.5599Z" fill="#54CCFD"/>
<path d="M253.75 38.5417C253.75 41.4187 251.419 43.75 248.542 43.75H221.458C218.582 43.75 216.25 41.4187 216.25 38.5417V11.4583C216.25 8.58125 218.582 6.25 221.458 6.25H248.542C251.419 6.25 253.75 8.58125 253.75 11.4583V38.5417Z" fill="#673AB7"/>
<path d="M244.406 26.6667C243.729 25.7292 242.75 25.0833 241.49 24.7396C241.49 24.7396 242.552 24.3542 243.51 22.9167C244.083 22 244.375 20.8958 244.375 19.6042C244.375 17.3646 243.562 15.6458 241.937 14.4688C240.312 13.2917 238.479 12.5 235.365 12.5H225.625V37.5H236.49C239.437 37.4792 241.656 36.8437 243.167 35.625C244.667 34.3854 245.417 32.5521 245.417 30.1042C245.417 28.75 245.083 27.6042 244.406 26.6667ZM231.875 16.6667C231.875 16.6667 236.219 16.6667 236.302 16.6667C237.885 16.6667 239.167 17.9479 239.167 19.5312C239.167 21.1146 237.885 22.3958 236.302 22.3958C236.219 22.3958 231.875 22.3958 231.875 22.3958V16.6667ZM237.083 33.3333H231.875V27.0833H237.083C238.812 27.0833 240.208 28.4792 240.208 30.2083C240.208 31.9375 238.812 33.3333 237.083 33.3333Z" fill="white"/>
<defs>
<linearGradient id="paint0_linear_57_31" x1="60.4495" y1="1.65291" x2="73.549" y2="39.5489" gradientUnits="userSpaceOnUse">
<stop stop-color="#2AA4F4"/>
<stop offset="1" stop-color="#007AD9"/>
</linearGradient>
</defs>
</svg>
