<svg width="100" height="100" viewBox="0 0 100 100" fill="none" xmlns="http://www.w3.org/2000/svg">
<path d="M0 25C0 21.6848 1.31696 18.5054 3.66117 16.1612C6.00537 13.817 9.18479 12.5 12.5 12.5H87.5C90.8152 12.5 93.9946 13.817 96.3388 16.1612C98.683 18.5054 100 21.6848 100 25V75C100 78.3152 98.683 81.4946 96.3388 83.8388C93.9946 86.183 90.8152 87.5 87.5 87.5H12.5C9.18479 87.5 6.00537 86.183 3.66117 83.8388C1.31696 81.4946 0 78.3152 0 75V25ZM12.5 18.75C10.8424 18.75 9.25268 19.4085 8.08058 20.5806C6.90848 21.7527 6.25 23.3424 6.25 25V26.3562L50 52.6062L93.75 26.3562V25C93.75 23.3424 93.0915 21.7527 91.9194 20.5806C90.7473 19.4085 89.1576 18.75 87.5 18.75H12.5ZM93.75 33.6437L64.325 51.3L93.75 69.4062V33.6437ZM93.5375 76.6188L58.2875 54.925L50 59.8938L41.7125 54.925L6.4625 76.6125C6.81766 77.9425 7.60198 79.118 8.69369 79.9566C9.78539 80.7951 11.1234 81.2498 12.5 81.25H87.5C88.8758 81.2502 90.2132 80.7964 91.3048 79.959C92.3964 79.1217 93.1812 77.9476 93.5375 76.6188ZM6.25 69.4062L35.675 51.3L6.25 33.6437V69.4062Z" fill="white"/>
</svg>
