<svg width="100" height="100" viewBox="0 0 100 100" fill="none" xmlns="http://www.w3.org/2000/svg">
<path d="M31.4125 93.7499C69.15 93.7499 89.7937 62.4812 89.7937 35.4124C89.7937 34.5374 89.7937 33.6499 89.7562 32.7749C93.7754 29.8655 97.2441 26.2634 100 22.1374C96.2457 23.7928 92.2673 24.8837 88.1937 25.3749C92.4846 22.8102 95.6983 18.7747 97.2375 14.0187C93.2062 16.407 88.7938 18.0835 84.1937 18.9749C81.1011 15.6813 77.0088 13.4994 72.5505 12.7672C68.0923 12.0349 63.517 12.7932 59.5334 14.9245C55.5497 17.0559 52.38 20.4414 50.5153 24.5566C48.6506 28.6718 48.1949 33.287 49.2188 37.6874C41.0609 37.2784 33.0801 35.1591 25.794 31.4671C18.5079 27.775 12.0793 22.5927 6.925 16.2562C4.30838 20.7755 3.50984 26.1212 4.69154 31.2078C5.87324 36.2945 8.94659 40.7408 13.2875 43.6437C10.0346 43.5332 6.85326 42.6597 4 41.0937V41.3749C4.00561 46.1092 5.64567 50.6963 8.64296 54.3609C11.6403 58.0256 15.8109 60.5429 20.45 61.4874C18.6891 61.9725 16.8702 62.2144 15.0438 62.2062C13.7561 62.2101 12.4711 62.0908 11.2063 61.8499C12.5174 65.9253 15.0705 69.4885 18.5078 72.0404C21.9451 74.5924 26.0946 76.0053 30.375 76.0812C23.1035 81.7924 14.1213 84.89 4.875 84.8749C3.24575 84.8818 1.61764 84.7879 0 84.5937C9.38447 90.5766 20.2831 93.7534 31.4125 93.7499Z" fill="#2AA4F4"/>
</svg>
