<svg width="48" height="48" viewBox="0 0 48 48" fill="none" xmlns="http://www.w3.org/2000/svg">
<path d="M28.6725 2.88746C28.5713 2.90246 28.47 2.93246 28.3725 2.97746C27.5475 3.38621 26.61 4.60121 26.43 4.84121C26.4188 4.85621 26.4075 4.87121 26.4 4.88621C25.4738 6.27371 24.9788 7.89746 24.96 9.58871C24.9488 10.8562 25.1963 12.1125 25.6988 13.3237C26.8688 16.1325 29.2988 18.4575 32.19 19.545C32.2875 19.5787 32.3813 19.6125 32.55 19.6725C32.565 19.68 32.7075 19.725 32.73 19.7287L32.835 19.7662C32.985 19.815 33.1388 19.8637 33.2888 19.8937C34.05 20.0475 34.7925 20.1337 35.49 20.1562C35.61 20.1562 35.73 20.16 35.85 20.16C41.1113 20.16 43.1513 16.4475 43.83 15.21C43.8975 15.09 43.9463 14.9925 43.9913 14.9325C43.9913 14.9287 43.9913 14.9287 43.995 14.925C44.2913 14.4862 44.1788 13.89 43.74 13.59C43.305 13.2937 42.7088 13.4062 42.4088 13.845H42.405C41.0025 15.9112 38.6025 16.5375 35.2763 15.7125C35.0288 15.6525 34.7588 15.5587 34.5188 15.4687C34.2038 15.3562 33.8888 15.225 33.5963 15.0825C33.015 14.7937 32.4675 14.4487 31.9725 14.0662C29.0475 11.7975 27.9038 7.07621 29.6138 4.34996C29.8425 3.98621 29.8013 3.51371 29.5125 3.19496C29.295 2.95496 28.98 2.84621 28.6725 2.88746ZM20.1675 4.79996C19.95 4.79621 19.7288 4.86746 19.5488 5.01746C18.0975 6.19871 16.6125 8.13371 16.5488 8.21246C16.5413 8.22746 16.5338 8.23871 16.5225 8.25371C13.8975 12.075 13.6988 17.5125 16.02 22.1062C16.3838 22.8337 16.7963 23.5275 17.235 24.165L17.3663 24.3525C17.7375 24.8962 18.1538 25.5112 18.6863 25.9912C18.87 26.2012 19.0688 26.4037 19.2638 26.5987L19.3575 26.6962L19.4363 26.775C19.635 26.9662 19.8375 27.1612 20.0475 27.3487H20.0513C20.0663 27.3712 20.0888 27.3862 20.1075 27.405C20.3438 27.615 20.5838 27.8137 20.9025 28.065L20.9888 28.1287C21.2363 28.3275 21.4875 28.515 21.7463 28.6987C21.7725 28.7175 21.7988 28.7362 21.825 28.755C21.915 28.815 22.005 28.8712 22.095 28.935L22.185 28.995L22.29 29.0625C22.4813 29.19 22.6688 29.3062 22.935 29.46C23.1075 29.565 23.2913 29.67 23.4113 29.73C23.4638 29.76 23.52 29.79 23.6513 29.8612L23.9438 30.015C23.9588 30.0225 24.0263 30.0525 24.0413 30.06C24.2325 30.1575 24.4313 30.2512 24.63 30.3412L24.9338 30.4762C25.1325 30.5625 25.335 30.645 25.5825 30.7387L25.695 30.78C25.7025 30.7875 25.7963 30.8212 25.8038 30.825C25.9838 30.8887 26.1675 30.9525 26.3513 31.0125L26.7713 31.1512C26.9813 31.2225 27.225 31.305 27.4913 31.35C28.8 31.5675 30.0713 31.68 31.275 31.68C31.4175 31.68 31.56 31.6762 31.6988 31.6762C42.2963 31.4437 45.0525 22.44 45.0788 22.35C45.21 21.8962 44.9963 21.4125 44.5688 21.21C44.1413 21.0075 43.6313 21.15 43.365 21.54C40.68 25.4625 35.6025 27.12 30.4313 25.755C30.1913 25.695 29.9588 25.6275 29.67 25.5337C29.6213 25.5187 29.58 25.5037 29.5013 25.4737C29.3325 25.4212 29.1675 25.365 28.98 25.2937L28.7138 25.1925C28.56 25.1325 28.4063 25.0725 28.2188 24.99L28.095 24.9337C27.8663 24.8362 27.645 24.7275 27.4463 24.63L26.8988 24.345C26.775 24.285 26.6663 24.2175 26.4975 24.1162L26.4038 24.0637L26.31 24.0075C26.1713 23.925 26.0325 23.8387 25.905 23.7487L25.815 23.6925C25.8075 23.6887 25.7325 23.6362 25.725 23.6287C25.6125 23.5575 25.5038 23.4862 25.3988 23.4187C25.1663 23.2537 24.9375 23.0812 24.6713 22.8712L24.5663 22.785C22.0913 20.8087 20.2613 18.1687 19.4025 15.3375C18.6038 12.7387 19.1963 9.33746 20.9888 6.23996C21.2213 5.83871 21.135 5.32871 20.7788 5.02871C20.6025 4.87871 20.385 4.79996 20.1675 4.79996ZM9.60379 7.67996C9.37505 7.67996 9.14255 7.76246 8.95879 7.92746C7.12504 9.57371 5.75254 11.7075 5.60254 11.9512C1.68004 17.6625 2.43754 26.5387 5.13004 31.965C5.18254 32.0775 5.23879 32.1862 5.29504 32.295L5.33254 32.355C5.38129 32.4637 5.43754 32.5762 5.45629 32.5987C5.48629 32.67 5.53129 32.7487 5.55004 32.7712C5.59504 32.865 5.64004 32.9475 5.72254 33.09L6.03004 33.6187C6.07504 33.69 6.12004 33.765 6.13504 33.7912C6.19504 33.8887 6.25879 33.99 6.32254 34.0912L6.47254 34.3312C6.51754 34.4025 6.56254 34.4662 6.59254 34.5037C6.74254 34.7362 6.89255 34.9687 7.05754 35.19C7.06504 35.2012 7.07255 35.2087 7.08004 35.2162L7.14004 35.2987C7.27504 35.4937 7.41379 35.6812 7.53754 35.835L8.08504 36.5287C8.09255 36.5362 8.15255 36.6075 8.15629 36.615L8.23504 36.705C8.40004 36.9075 8.5763 37.11 8.75255 37.305C8.77879 37.335 8.80504 37.3612 8.83129 37.3912C9.00004 37.575 9.17255 37.7587 9.35255 37.95L9.52504 38.115C9.66754 38.265 9.81004 38.4112 9.96004 38.55C9.96004 38.5537 10.0313 38.6212 10.0313 38.6212L10.1813 38.76C10.3613 38.9325 10.5488 39.105 10.6913 39.225C10.6988 39.2362 10.8338 39.3525 10.845 39.36C11.0213 39.5175 11.1975 39.6675 11.3775 39.8137L12.2963 40.5412C12.45 40.6537 12.6075 40.7662 12.7875 40.8975C12.8475 40.9425 12.9113 40.9875 12.975 41.0287C13.0013 41.0512 13.0313 41.0737 13.05 41.085L13.74 41.5462C13.9913 41.7112 14.2425 41.865 14.55 42.0487L14.715 42.1425C14.9063 42.255 15.1013 42.3675 15.285 42.465C15.3938 42.525 15.5025 42.5775 15.5963 42.6262C15.7275 42.6975 15.87 42.7762 16.0875 42.8812C16.1063 42.8925 16.26 42.9675 16.2788 42.975C16.4963 43.0837 16.7175 43.185 16.995 43.3087C16.995 43.3125 17.085 43.3537 17.085 43.3537C17.34 43.4625 17.5875 43.5675 17.9138 43.6987C17.9663 43.7212 18.0188 43.74 18.03 43.7437C18.2625 43.8337 18.5063 43.9237 18.705 43.995C18.7238 44.0025 18.825 44.0437 18.8438 44.0512C19.11 44.1412 19.3725 44.2275 19.71 44.3325C19.7663 44.3512 19.8263 44.37 19.8338 44.37L20.025 44.43C20.2575 44.5012 20.49 44.5762 20.7413 44.625C22.5263 44.9512 24.27 45.12 25.92 45.12H25.9238C39.675 45.12 44.055 34.0537 44.1 33.9412C44.2688 33.495 44.085 32.9925 43.665 32.76C43.2525 32.5312 42.7275 32.64 42.435 33.0187C38.9063 37.665 32.25 39.39 24.63 37.6387C24.4463 37.5937 24.2588 37.5412 24.075 37.485L23.715 37.3762C23.4713 37.3012 23.2275 37.2187 22.9913 37.1362C22.9875 37.1362 22.8788 37.095 22.8788 37.095C22.6688 37.0237 22.4588 36.9412 22.275 36.87L22.065 36.7875C21.8325 36.6937 21.6 36.5962 21.375 36.495L21.2438 36.4387C21.0413 36.345 20.8463 36.255 20.6513 36.1575C20.6363 36.15 20.4825 36.075 20.4675 36.0712C20.3325 36.0037 20.1975 35.9325 20.025 35.8387L19.2413 35.4187C19.1625 35.3662 19.08 35.3175 19.0013 35.2762C18.765 35.13 18.5213 34.9837 18.2813 34.83C18.225 34.7962 18.1763 34.7587 18.0825 34.695C17.9175 34.59 17.7563 34.4812 17.52 34.3162L17.4263 34.2487C17.265 34.1362 17.1075 34.0162 16.9763 33.9187C16.8938 33.8587 16.8113 33.7912 16.6763 33.69C16.5563 33.5962 16.4363 33.5062 16.3238 33.4162L16.1138 33.2437C15.9375 33.1012 15.7725 32.9512 15.6 32.805C15.5775 32.7825 15.5588 32.7675 15.5325 32.7487C15.3413 32.5725 15.1463 32.3962 14.9138 32.175L14.235 31.5C14.07 31.3312 13.905 31.1587 13.7175 30.9525C13.545 30.7612 13.38 30.57 13.1588 30.3075L12.7538 29.8125C12.705 29.7412 12.6525 29.67 12.5888 29.595C12.45 29.4075 12.3113 29.2237 12.1725 29.0287C8.43754 23.8837 7.46255 13.1437 10.3725 9.20996C10.665 8.81621 10.6125 8.26121 10.245 7.92746C10.065 7.76246 9.83255 7.67996 9.60379 7.67996Z" fill="#54CCFD"/>
</svg>
