<?xml version="1.0" encoding="UTF-8"?>
<svg xmlns="http://www.w3.org/2000/svg" xmlns:xlink="http://www.w3.org/1999/xlink" viewBox="0 0 48 48" width="48px" height="48px">
<g id="surface67781559">
<path style=" stroke:none;fill-rule:nonzero;fill:rgb(87.843138%,25.098041%,98.431373%);fill-opacity:0.78039;" d="M 6 10 C 6 7.789062 7.789062 6 10 6 L 38 6 C 40.207031 6 42 7.789062 42 10 L 42 38 C 42 40.207031 40.207031 42 38 42 L 10 42 C 7.789062 42 6 40.207031 6 38 Z M 6 10 "/>
<path style=" stroke:none;fill-rule:nonzero;fill:rgb(0.784314%,5.882353%,8.627451%);fill-opacity:1;" d="M 9 9 L 9 39 L 39 39 L 39 9 Z M 21.015625 19.175781 L 19.015625 19.175781 L 19.015625 23.609375 L 20.988281 23.609375 C 21.535156 23.609375 21.957031 23.429688 22.257812 23.070312 C 22.558594 22.714844 22.707031 22.191406 22.707031 21.507812 C 22.707031 20.796875 22.554688 20.234375 22.246094 19.8125 C 21.941406 19.394531 21.53125 19.179688 21.015625 19.175781 Z M 24.363281 24.789062 C 23.539062 25.597656 22.394531 26 20.929688 26 L 19.015625 26 L 19.015625 31 L 16 31 L 16 16.78125 L 20.988281 16.78125 C 22.394531 16.78125 23.515625 17.21875 24.351562 18.089844 C 25.1875 18.960938 25.605469 20.09375 25.605469 21.488281 C 25.605469 22.882812 25.191406 23.980469 24.363281 24.789062 Z M 33.199219 23.101562 L 32.300781 23 C 31.5 23 31 23.300781 30.800781 24 L 30.800781 31 L 28 31 L 28 20.398438 L 30.601562 20.398438 L 30.699219 21.5 C 31.101562 20.601562 31.699219 20.199219 32.5 20.199219 C 32.800781 20.199219 33.101562 20.199219 33.300781 20.300781 Z M 33.199219 23.101562 "/>
</g>
</svg>
