<svg width="48" height="48" viewBox="0 0 48 48" fill="none" xmlns="http://www.w3.org/2000/svg">
<g clip-path="url(#clip0_15_901)">
<path d="M24 36.9001C10.932 36.9001 0.300049 31.1131 0.300049 24.0001C0.300049 16.8871 10.932 11.1001 24 11.1001C37.0681 11.1001 47.7001 16.8871 47.7001 24.0001C47.7001 31.1131 37.0681 36.9001 24 36.9001Z" fill="#DCD5F2"/>
<path d="M24 11.4C36.903 11.4 47.4 17.0526 47.4 24C47.4 30.9474 36.903 36.6 24 36.6C11.097 36.6 0.6 30.9474 0.6 24C0.6 17.0526 11.097 11.4 24 11.4ZM24 10.8C10.7454 10.8 0 16.71 0 24C0 31.29 10.7454 37.2 24 37.2C37.2546 37.2 48 31.29 48 24C48 16.71 37.2546 10.8 24 10.8Z" fill="#8B75A1"/>
<path d="M15.0672 20.4C16.1022 20.4 16.9956 20.7732 17.5176 21.4236C17.967 21.984 18.1062 22.7262 17.9184 23.5698C17.4138 25.8444 16.437 26.4 12.942 26.4H10.458L11.508 20.4H15.0672ZM15.0672 19.2H10.5L8.40002 31.2H9.60002L10.2336 27.6H12.9426C16.4604 27.6 18.3744 27.057 19.0902 23.8296C19.7052 21.0576 17.6616 19.2 15.0672 19.2ZM36.6672 20.4C37.7022 20.4 38.5956 20.7732 39.1176 21.4236C39.567 21.984 39.7062 22.7262 39.5184 23.5698C39.0138 25.8444 38.037 26.4 34.542 26.4H32.058L33.108 20.4H36.6672ZM36.6672 19.2H32.1L30 31.2H31.2L31.8336 27.6H34.5426C38.0604 27.6 39.9744 27.057 40.6902 23.8296C41.3052 21.0576 39.2616 19.2 36.6672 19.2Z" fill="#36404D"/>
<path d="M29.4432 19.9273C28.9158 19.4089 27.9864 19.2001 26.6004 19.2001H23.2776L24 15.6001H22.74L20.4 27.6001H21.594L23.0268 20.4001H23.2782H26.601C28.0038 20.4001 28.4574 20.6401 28.602 20.7823C28.8078 20.9851 28.8564 21.5179 28.7322 22.2001L27.672 27.6001H28.9356L29.9112 22.4221C30.1194 21.2773 29.9616 20.4373 29.4432 19.9273Z" fill="#36404D"/>
</g>
<defs>
<clipPath id="clip0_15_901">
<rect width="48" height="48" fill="white"/>
</clipPath>
</defs>
</svg>
